<svg id="Layer_1" xmlns="http://www.w3.org/2000/svg" viewBox="-792 581 214.4 40"><style>.st0{fill:#999}</style><path class="st0" d="M-743.9 581h-45.9c-1.2 0-2.2 1.1-2.2 2.4v29.3c0 1.3 1 2.3 2.2 2.3h18.5v-2.6h-18.1v-28.8h45.2V594h2.6v-10.6c-.1-1.3-1.1-2.4-2.3-2.4z"/><path class="st0" d="M-758 611.5h-4c-.9 0-1.3-.4-1.3-1.1 0-.4.2-.8.5-1.1.8.3 1.6.4 2.5.4 3.2 0 5.6-2 5.6-5v-.4c0-.9-.3-1.8-.7-2.5.7-.3 1.6-.4 2.2-.4v-2.8c-1.2 0-2.6.8-3.3 1.9-1-.8-2.3-1.2-3.7-1.2-3.2 0-5.6 2-5.6 5v.4c0 1.7.7 3 1.8 3.8-1.2.7-2 1.5-2 2.8 0 1.1.6 2.1 1.7 2.5-1.6.4-2.6 1.5-2.6 3 0 2.7 2.8 4 6.5 4 3.9 0 7.2-1.6 7.2-5.2.1-2.6-1.6-4.1-4.8-4.1zm-4.7-7.1c0-1.6.7-2.8 2.3-2.8 1.6 0 2.3 1.2 2.3 2.8v.3c0 1.6-.7 2.8-2.3 2.8-1.6 0-2.3-1.2-2.3-2.8v-.3zm2.3 14.2c-2.3 0-3.6-.8-3.6-2.2 0-1.2.8-2 2.5-2h3c1.4 0 2.3.5 2.3 1.8 0 1.6-1.7 2.4-4.2 2.4zM-747.1 602.1v-2.4h-3.2v15.2h3.2v-8.5c0-2.7 1.2-4 3.2-4 .6 0 1.1.1 1.7.2l.1-3c-.3-.1-.9-.2-1.4-.2-1.7 0-3.1.9-3.6 2.7zM-728.7 611.6v-6.9c0-3.2-1.6-5.3-5.4-5.3-3.6 0-5.5 2.1-5.5 5.2v.4h2.9v-.3c0-1.6.8-2.6 2.4-2.6 1.7 0 2.2 1.1 2.2 2.7v.2l-4.2 1.8c-2 .8-3.8 1.8-3.8 4.5 0 2.3 1.5 3.9 4 3.9 2 0 3.5-1.1 4.1-2.4.3 1.6 1.4 2.3 2.8 2.3.8 0 1.4-.2 2-.6v-2.1c-.3.1-.5.1-.8.1-.5 0-.7-.3-.7-.9zm-3.5-2.8c0 2.3-1.2 3.8-3 3.8-1.1 0-1.8-.6-1.8-1.7 0-1.2.7-1.8 1.9-2.3l2.9-1.3v1.5zM-719.2 610.3h-.2l-3.5-10.6h-3.3l5.2 15.2h3.2l5-15.2h-3.2zM-709.8 593.9h3.5v3.5h-3.5zM-709.8 599.7h3.2v15.2h-3.2zM-698.2 610.6V602h3.2v-2.3h-3.2v-4.3h-2.1l-.4 2.1c-.3 1.4-.7 2.2-2.1 2.5l-.6.1v1.9h1.7v9.1c0 2.9 1.7 3.9 3.7 3.9 1.3 0 2.3-.3 3.5-1v-2.5c-.9.5-1.5.8-2.3.8-1 0-1.4-.6-1.4-1.7zM-680.7 611.6v-6.9c0-3.2-1.6-5.3-5.4-5.3-3.6 0-5.5 2.1-5.5 5.2v.4h2.9v-.3c0-1.6.8-2.6 2.4-2.6 1.7 0 2.2 1.1 2.2 2.7v.2l-4.2 1.8c-2 .8-3.8 1.8-3.8 4.5 0 2.3 1.5 3.9 4 3.9 2 0 3.5-1.1 4.1-2.4.3 1.6 1.4 2.3 2.8 2.3.8 0 1.4-.2 2-.6v-2.1c-.3.1-.5.1-.8.1-.5 0-.7-.3-.7-.9zm-3.5-2.8c0 2.3-1.2 3.8-3 3.8-1.1 0-1.8-.6-1.8-1.7 0-1.2.7-1.8 1.9-2.3l2.9-1.3v1.5zM-669.9 606.2l-2-.6c-1.2-.4-1.9-.8-1.9-2s.8-1.9 2.1-1.9c1.8 0 2.7 1.2 2.7 2.9h2.9c0-2.9-1.8-5.3-5.6-5.3-3.1 0-5.1 1.9-5.1 4.6 0 2.6 1.4 3.8 3.8 4.5l2.1.6c1.4.4 2 .8 2 1.9 0 1.2-.9 1.8-2.3 1.8-1.7 0-2.9-.9-3-2.9h-2.9c.1 3.5 2.5 5.3 5.9 5.3 3.3 0 5.4-1.7 5.4-4.5-.1-2.5-1.5-3.6-4.1-4.4zM-653.3 599.5c-3.3 0-5.6 2.6-5.6 7.4v.8c0 4.8 2.2 7.4 5.5 7.4 3.5 0 5.1-2.5 5.2-5.7h-1.8c-.1 2.9-1.2 4.1-3.5 4.1-2.2 0-3.7-1.8-3.7-5.9h9.1v-.8c.2-4.7-1.7-7.3-5.2-7.3zm-3.7 6.8c.1-3.7 1.5-5.1 3.6-5.1 2.2 0 3.4 1.4 3.5 5.1h-7.1zM-637.4 599.5c-2 0-3.4 1.1-3.9 2.5v-2.3h-2v15.2h2v-9.6c0-2.7 1.4-4.2 3.4-4.2s3 1.2 3 3.6V615h2v-10.7c-.1-2.9-1.6-4.8-4.5-4.8zM-622.8 599.5c-3.3 0-5.6 2.6-5.6 7.4v.8c0 4.8 2.2 7.4 5.6 7.4 3.5 0 5.1-2.5 5.2-5.7h-1.8c-.1 2.9-1.2 4.1-3.5 4.1-2.2 0-3.7-1.8-3.7-5.9h9v-.8c.2-4.7-1.8-7.3-5.2-7.3zm-3.6 6.8c.1-3.7 1.5-5.1 3.6-5.1 2.2 0 3.4 1.4 3.5 5.1h-7.1zM-610.8 602.3v-2.6h-2v15.2h2v-9.2c0-3 1.2-4.4 3.3-4.4.6 0 1 .1 1.3.2l.1-1.7c-.3-.1-.8-.2-1.2-.2-1.8 0-2.9 1-3.5 2.7zM-594.8 600.9c-.9-.8-2-1.3-3.4-1.3-2.9 0-4.9 2.1-4.9 5v.4c0 1.6.6 3 1.7 3.9-1.1.6-1.8 1.4-1.8 2.5 0 .9.4 1.8 1.6 2.1-1.7.5-2.7 1.7-2.7 3.3 0 2.7 2.5 4.3 6 4.3 3.4 0 6.5-1.5 6.5-5 0-2.6-1.8-4-4.8-4h-3.7c-1 0-1.4-.5-1.4-1.2s.4-1.1.9-1.5c.7.4 1.5.6 2.4.6 2.9 0 4.9-2.1 4.9-5v-.4c0-1.1-.3-2.1-.8-2.9.6-.4 1.7-.7 2.6-.7v-2c-1.3 0-2.4.7-3.1 1.9zm-4.1 12.9h2.3c1.9 0 3.1.7 3.1 2.4 0 2.3-2.2 3.3-4.8 3.3s-4.2-1.1-4.2-3c.1-1.7 1.3-2.7 3.6-2.7zm3.6-9c0 2-1 3.6-3 3.6s-3-1.6-3-3.6v-.2c0-2 1-3.6 3-3.6s3 1.6 3 3.6v.2zM-579.4 599.7l-3.8 12.4h-.1l-4.3-12.4h-1.9l5.3 15-1.9 6h1.7l6.8-21z"/></svg>