<?xml version="1.0" encoding="utf-8"?>
<!-- Generator: Adobe Illustrator 19.1.0, SVG Export Plug-In . SVG Version: 6.00 Build 0)  -->
<svg version="1.1" id="Layer_1" xmlns="http://www.w3.org/2000/svg" xmlns:xlink="http://www.w3.org/1999/xlink" x="0px" y="0px"
	 viewBox="-792 581 214.4 40" style="enable-background:new -792 581 214.4 40;" xml:space="preserve">
<style type="text/css">
	.st0{fill:#999999;}
</style>
<g>
	<g>
		<path class="st0" d="M-743.9,581h-45.9c-1.2,0-2.2,1.1-2.2,2.4v29.3c0,1.3,1,2.3,2.2,2.3h18.5v-2.6h-18.1v-28.8h45.2V594h2.6
			v-10.6C-741.7,582.1-742.7,581-743.9,581z"/>
		<path class="st0" d="M-758,611.5h-4c-0.9,0-1.3-0.4-1.3-1.1c0-0.4,0.2-0.8,0.5-1.1c0.8,0.3,1.6,0.4,2.5,0.4c3.2,0,5.6-2,5.6-5
			v-0.4c0-0.9-0.3-1.8-0.7-2.5c0.7-0.3,1.6-0.4,2.2-0.4v-2.8c-1.2,0-2.6,0.8-3.3,1.9c-1-0.8-2.3-1.2-3.7-1.2c-3.2,0-5.6,2-5.6,5v0.4
			c0,1.7,0.7,3,1.8,3.8c-1.2,0.7-2,1.5-2,2.8c0,1.1,0.6,2.1,1.7,2.5c-1.6,0.4-2.6,1.5-2.6,3c0,2.7,2.8,4,6.5,4
			c3.9,0,7.2-1.6,7.2-5.2C-753.1,613-754.8,611.5-758,611.5z M-762.7,604.4c0-1.6,0.7-2.8,2.3-2.8c1.6,0,2.3,1.2,2.3,2.8v0.3
			c0,1.6-0.7,2.8-2.3,2.8c-1.6,0-2.3-1.2-2.3-2.8V604.4z M-760.4,618.6c-2.3,0-3.6-0.8-3.6-2.2c0-1.2,0.8-2,2.5-2h3
			c1.4,0,2.3,0.5,2.3,1.8C-756.2,617.8-757.9,618.6-760.4,618.6z"/>
		<path class="st0" d="M-747.1,602.1v-2.4h-3.2v15.2h3.2v-8.5c0-2.7,1.2-4,3.2-4c0.6,0,1.1,0.1,1.7,0.2l0.1-3
			c-0.3-0.1-0.9-0.2-1.4-0.2C-745.2,599.4-746.6,600.3-747.1,602.1z"/>
		<path class="st0" d="M-728.7,611.6v-6.9c0-3.2-1.6-5.3-5.4-5.3c-3.6,0-5.5,2.1-5.5,5.2v0.4h2.9v-0.3c0-1.6,0.8-2.6,2.4-2.6
			c1.7,0,2.2,1.1,2.2,2.7v0.2l-4.2,1.8c-2,0.8-3.8,1.8-3.8,4.5c0,2.3,1.5,3.9,4,3.9c2,0,3.5-1.1,4.1-2.4c0.3,1.6,1.4,2.3,2.8,2.3
			c0.8,0,1.4-0.2,2-0.6v-2.1c-0.3,0.1-0.5,0.1-0.8,0.1C-728.5,612.5-728.7,612.2-728.7,611.6z M-732.2,608.8c0,2.3-1.2,3.8-3,3.8
			c-1.1,0-1.8-0.6-1.8-1.7c0-1.2,0.7-1.8,1.9-2.3l2.9-1.3C-732.2,607.3-732.2,608.8-732.2,608.8z"/>
		<polygon class="st0" points="-719.2,610.3 -719.4,610.3 -722.9,599.7 -726.2,599.7 -721,614.9 -717.8,614.9 -712.8,599.7 
			-716,599.7 		"/>
		<rect x="-709.8" y="593.9" class="st0" width="3.5" height="3.5"/>
		<rect x="-709.8" y="599.7" class="st0" width="3.2" height="15.2"/>
		<path class="st0" d="M-698.2,610.6V602h3.2v-2.3h-3.2v-4.3h-2.1l-0.4,2.1c-0.3,1.4-0.7,2.2-2.1,2.5l-0.6,0.1v1.9h1.7v9.1
			c0,2.9,1.7,3.9,3.7,3.9c1.3,0,2.3-0.3,3.5-1v-2.5c-0.9,0.5-1.5,0.8-2.3,0.8C-697.8,612.3-698.2,611.7-698.2,610.6z"/>
		<path class="st0" d="M-680.7,611.6v-6.9c0-3.2-1.6-5.3-5.4-5.3c-3.6,0-5.5,2.1-5.5,5.2v0.4h2.9v-0.3c0-1.6,0.8-2.6,2.4-2.6
			c1.7,0,2.2,1.1,2.2,2.7v0.2l-4.2,1.8c-2,0.8-3.8,1.8-3.8,4.5c0,2.3,1.5,3.9,4,3.9c2,0,3.5-1.1,4.1-2.4c0.3,1.6,1.4,2.3,2.8,2.3
			c0.8,0,1.4-0.2,2-0.6v-2.1c-0.3,0.1-0.5,0.1-0.8,0.1C-680.5,612.5-680.7,612.2-680.7,611.6z M-684.2,608.8c0,2.3-1.2,3.8-3,3.8
			c-1.1,0-1.8-0.6-1.8-1.7c0-1.2,0.7-1.8,1.9-2.3l2.9-1.3V608.8z"/>
		<path class="st0" d="M-669.9,606.2l-2-0.6c-1.2-0.4-1.9-0.8-1.9-2c0-1.2,0.8-1.9,2.1-1.9c1.8,0,2.7,1.2,2.7,2.9h2.9
			c0-2.9-1.8-5.3-5.6-5.3c-3.1,0-5.1,1.9-5.1,4.6c0,2.6,1.4,3.8,3.8,4.5l2.1,0.6c1.4,0.4,2,0.8,2,1.9c0,1.2-0.9,1.8-2.3,1.8
			c-1.7,0-2.9-0.9-3-2.9h-2.9c0.1,3.5,2.5,5.3,5.9,5.3c3.3,0,5.4-1.7,5.4-4.5C-665.9,608.1-667.3,607-669.9,606.2z"/>
		<path class="st0" d="M-653.3,599.5c-3.3,0-5.6,2.6-5.6,7.4v0.8c0,4.8,2.2,7.4,5.5,7.4c3.5,0,5.1-2.5,5.2-5.7h-1.8
			c-0.1,2.9-1.2,4.1-3.5,4.1c-2.2,0-3.7-1.8-3.7-5.9h9.1v-0.8C-647.9,602.1-649.8,599.5-653.3,599.5z M-657,606.3
			c0.1-3.7,1.5-5.1,3.6-5.1c2.2,0,3.4,1.4,3.5,5.1H-657z"/>
		<path class="st0" d="M-637.4,599.5c-2,0-3.4,1.1-3.9,2.5v-2.3h-2v15.2h2v-9.6c0-2.7,1.4-4.2,3.4-4.2s3,1.2,3,3.6V615h2v-10.7
			C-633,601.4-634.5,599.5-637.4,599.5z"/>
		<path class="st0" d="M-622.8,599.5c-3.3,0-5.6,2.6-5.6,7.4v0.8c0,4.8,2.2,7.4,5.6,7.4c3.5,0,5.1-2.5,5.2-5.7h-1.8
			c-0.1,2.9-1.2,4.1-3.5,4.1c-2.2,0-3.7-1.8-3.7-5.9h9v-0.8C-617.4,602.1-619.4,599.5-622.8,599.5z M-626.4,606.3
			c0.1-3.7,1.5-5.1,3.6-5.1c2.2,0,3.4,1.4,3.5,5.1H-626.4z"/>
		<path class="st0" d="M-610.8,602.3v-2.6h-2v15.2h2v-9.2c0-3,1.2-4.4,3.3-4.4c0.6,0,1,0.1,1.3,0.2l0.1-1.7
			c-0.3-0.1-0.8-0.2-1.2-0.2C-609.1,599.6-610.2,600.6-610.8,602.3z"/>
		<path class="st0" d="M-594.8,600.9c-0.9-0.8-2-1.3-3.4-1.3c-2.9,0-4.9,2.1-4.9,5v0.4c0,1.6,0.6,3,1.7,3.9
			c-1.1,0.6-1.8,1.4-1.8,2.5c0,0.9,0.4,1.8,1.6,2.1c-1.7,0.5-2.7,1.7-2.7,3.3c0,2.7,2.5,4.3,6,4.3c3.4,0,6.5-1.5,6.5-5
			c0-2.6-1.8-4-4.8-4h-3.7c-1,0-1.4-0.5-1.4-1.2c0-0.7,0.4-1.1,0.9-1.5c0.7,0.4,1.5,0.6,2.4,0.6c2.9,0,4.9-2.1,4.9-5v-0.4
			c0-1.1-0.3-2.1-0.8-2.9c0.6-0.4,1.7-0.7,2.6-0.7v-2C-593,599-594.1,599.7-594.8,600.9z M-598.9,613.8h2.3c1.9,0,3.1,0.7,3.1,2.4
			c0,2.3-2.2,3.3-4.8,3.3s-4.2-1.1-4.2-3C-602.4,614.8-601.2,613.8-598.9,613.8z M-595.3,604.8c0,2-1,3.6-3,3.6s-3-1.6-3-3.6v-0.2
			c0-2,1-3.6,3-3.6s3,1.6,3,3.6V604.8z"/>
		<polygon class="st0" points="-579.4,599.7 -583.2,612.1 -583.3,612.1 -587.6,599.7 -589.5,599.7 -584.2,614.7 -586.1,620.7 
			-584.4,620.7 -577.6,599.7 		"/>
	</g>
</g>
</svg>
