<?xml version="1.0" standalone="no"?>
<!DOCTYPE svg PUBLIC "-//W3C//DTD SVG 1.1//EN" "http://www.w3.org/Graphics/SVG/1.1/DTD/svg11.dtd" >
<svg xmlns="http://www.w3.org/2000/svg">
<metadata>
Created by FontPrep 20130207 at Mon Nov 23 15:13:42 2015
 By Callum Flack
(c) 2010 Klim Type Foundry. All rights reserved.
</metadata>
<defs>
<font id="36df8b6d2b3e5bd4832e022f5466e546" horiz-adv-x='1024' >
  <font-face 
    font-family="FoundersGroteskCond-Reg"
    font-weight="400"
    font-stretch="condensed"
    units-per-em="2048"
    panose-1="2 11 5 3 3 2 2 6 2 3"
    ascent="1290"
    descent="-758"
    x-height="893"
    cap-height="1290"
    bbox="-84 -365 1724 1802"
    underline-thickness="81"
    underline-position="-62"
    unicode-range="U+0020-FB04"
  />
<missing-glyph horiz-adv-x="1245" 
 />
    <glyph glyph-name="ff" unicode="ff" horiz-adv-x="907" 
d="M836 1194q-113 0 -113 -150v-151h168v-109h-168v-784h-150v784h-297v-784h-149v784h-109v109h109v131q0 129 62 200t186 70q74 0 139 -30l-22 -113q-53 27 -101 27q-115 0 -115 -150v-135h297v147q1 129 63 200t185 71q74 0 140 -31l-23 -111q-55 25 -102 25z" />
    <glyph glyph-name="fi" unicode="fi" horiz-adv-x="821" 
d="M569 1051v172h158v-172h-158zM573 893h150v-893h-150v893zM387 1194q-111 0 -111 -150v-151h168v-109h-168v-784h-149v784h-109v109h109v147q0 129 61 200t179 71q72 0 125 -25v-117q-55 25 -105 25z" />
    <glyph glyph-name="fl" unicode="fl" horiz-adv-x="821" 
d="M573 1290h150v-1290h-150v1290zM387 1194q-111 0 -111 -150v-151h168v-109h-168v-784h-149v784h-109v109h109v147q0 129 61 200t179 71q72 0 125 -25v-117q-55 25 -105 25z" />
    <glyph glyph-name="ffi" unicode="ffi" horiz-adv-x="1267" 
d="M1016 1051v172h158v-172h-158zM1020 893h149v-893h-149v893zM573 893v147q-1 129 61 200t179 71q72 0 125 -25v-117q-55 25 -104 25q-111 0 -111 -150v-151h168v-109h-168v-784h-150v784h-297v-784h-149v784h-109v109h109v131q0 129 62 200t186 70q74 0 139 -30l-22 -113
q-53 27 -101 27q-115 0 -115 -150v-135h297z" />
    <glyph glyph-name="ffl" unicode="ffl" horiz-adv-x="1267" 
d="M1020 1290h149v-1290h-149v1290zM891 784h-168v-784h-150v784h-297v-784h-149v784h-109v109h109v131q0 129 62 200t186 70q74 0 139 -30l-22 -113q-53 27 -101 27q-115 0 -115 -150v-135h297v147q-1 129 61 200t179 71q72 0 125 -25v-117q-55 25 -104 25
q-111 0 -111 -150v-151h168v-109z" />
    <glyph glyph-name="f_b" unicode="fb" horiz-adv-x="1327" 
d="M573 0v1290h150v-532q27 63 87 108t151 45q145 -1 231 -113t86 -329v-45q0 -217 -86 -330t-231 -112q-90 0 -151 45q-60 45 -87 108l-16 -135h-134zM1128 428v39q0 158 -52 241t-148 83t-150 -71t-55 -190v-168q0 -120 54 -190q55 -70 151 -70t148 84t52 242zM387 1194
q-111 0 -111 -150v-151h168v-109h-168v-784h-149v784h-109v109h109v147q0 129 61 200t179 71q72 0 125 -25v-117q-55 25 -105 25z" />
    <glyph glyph-name="f_f_b" unicode="ffb" horiz-adv-x="1773" 
d="M1020 0v1290h149v-532q27 63 87 108t151 45q145 -1 231 -113t86 -329v-45q0 -217 -86 -330t-231 -112q-90 0 -151 45q-60 45 -87 108l-16 -135h-133zM1575 428v39q0 158 -52 241q-53 83 -149 83t-150 -71t-55 -190v-168q1 -120 55 -190t150 -70t149 84q52 84 52 242z
M836 1194q-113 0 -113 -150v-151h168v-109h-168v-784h-150v784h-297v-784h-149v784h-109v109h109v131q0 129 62 200t186 70q74 0 139 -30l-22 -113q-53 27 -101 27q-115 0 -115 -150v-135h297v147q1 129 63 200t183 71q80 0 137 -31l-18 -111q-55 25 -102 25z" />
    <glyph glyph-name="f_h" unicode="fh" horiz-adv-x="1318" 
d="M723 1290v-522q27 61 89 102t149 41q129 1 199 -77t69 -211v-623h-150v588q0 201 -166 200q-86 0 -138 -64t-52 -175v-549h-150v1290h150zM387 1194q-111 0 -111 -150v-151h168v-109h-168v-784h-149v784h-109v109h109v147q0 129 61 200t179 71q72 0 125 -25v-117
q-55 25 -105 25z" />
    <glyph glyph-name="f_f_h" unicode="ffh" horiz-adv-x="1765" 
d="M1169 1290v-522q27 61 89 102t149 41q129 1 199 -77t69 -211v-623h-149v588q0 201 -166 200q-86 0 -138 -64t-53 -175v-549h-149v1290h149zM836 1194q-113 0 -113 -150v-151h168v-109h-168v-784h-150v784h-297v-784h-149v784h-109v109h109v131q0 129 62 200t186 70
q74 0 139 -30l-22 -113q-53 27 -101 27q-115 0 -115 -150v-135h297v147q1 129 63 200t183 71q80 0 137 -31l-18 -111q-55 25 -102 25z" />
    <glyph glyph-name="f_j" unicode="fj" horiz-adv-x="821" 
d="M569 1051v172h158v-172h-158zM723 893v-1034q0 -223 -201 -224q-80 0 -131 35l21 107q45 -23 90 -23t58 23t13 71v1045h150zM387 1194q-111 0 -111 -150v-151h168v-109h-168v-784h-149v784h-109v109h109v147q0 129 61 200t179 71q72 0 125 -25v-117q-55 25 -105 25z" />
    <glyph glyph-name="f_f_j" unicode="ffj" horiz-adv-x="1267" 
d="M1016 1051v172h158v-172h-158zM1169 893v-1034q0 -223 -200 -224q-80 0 -131 35l20 107q45 -23 90 -23t59 23q13 23 13 71v1045h149zM573 893v147q-1 129 61 200t179 71q72 0 125 -25v-117q-55 25 -104 25q-111 0 -111 -150v-151h168v-109h-168v-784h-150v784h-297v-784
h-149v784h-109v109h109v131q0 129 62 200t186 70q74 0 139 -30l-22 -113q-53 27 -101 27q-115 0 -115 -150v-135h297z" />
    <glyph glyph-name="f_k" unicode="fk" horiz-adv-x="1253" 
d="M723 0h-150v1290h150v-829l346 432h164l-324 -393l336 -500h-168l-270 395l-84 -102v-293zM387 1194q-111 0 -111 -150v-151h168v-109h-168v-784h-149v784h-109v109h109v147q0 129 61 200t179 71q72 0 125 -25v-117q-55 25 -105 25z" />
    <glyph glyph-name="f_f_k" unicode="ffk" horiz-adv-x="1699" 
d="M1169 0h-149v1290h149v-829l347 432h163l-323 -393l336 -500h-168l-271 395l-84 -102v-293zM891 784h-168v-784h-150v784h-297v-784h-149v784h-109v109h109v131q0 129 62 200t186 70q74 0 139 -30l-22 -113q-53 27 -101 27q-115 0 -115 -150v-135h297v147q-1 129 61 200
t179 71q72 0 125 -25v-117q-55 25 -104 25q-111 0 -111 -150v-151h168v-109z" />
    <glyph glyph-name=".notdef" horiz-adv-x="1245" 
 />
    <glyph glyph-name=".null" horiz-adv-x="0" 
 />
    <glyph glyph-name="nonmarkingreturn" horiz-adv-x="681" 
 />
    <glyph glyph-name="space" unicode=" " horiz-adv-x="313" 
 />
    <glyph glyph-name="exclam" unicode="!" horiz-adv-x="309" 
d="M74 1290h162v-364l-50 -600h-65l-47 600v364zM61 0v186h187v-186h-187z" />
    <glyph glyph-name="quotedbl" unicode="&#x22;" horiz-adv-x="518" 
d="M309 836v454h133v-454h-133zM76 836v454h133v-454h-133z" />
    <glyph glyph-name="numbersign" unicode="#" horiz-adv-x="1097" 
d="M451 836l-82 -377h278l82 377h-278zM995 459l-18 -117h-227l-74 -342h-127l74 342h-279l-72 -342h-127l74 342h-194l18 117h201l82 377h-224l21 116h227l74 340h125l-74 -340h279l73 340h127l-73 -340h192l-18 -116h-199l-82 -377h221z" />
    <glyph glyph-name="dollar" unicode="$" horiz-adv-x="854" 
d="M197 978q0 -87 40 -137t125 -85l19 -8v440q-86 -10 -135 -66t-49 -144zM479 557v-457q89 10 141 68t52 150t-46 146q-47 54 -145 93h-2zM55 972q0 140 88 233t238 102v168h98v-170q156 -19 236 -125t80 -262v-56h-138v56q0 102 -46 174t-132 90v-473l56 -21
q141 -57 211 -140q70 -84 69 -226q0 -142 -90 -236t-246 -102v-172h-98v174q-166 16 -254 125t-88 295v38h141v-38q0 -264 201 -300v488l-64 24q-129 50 -195 132t-67 222z" />
    <glyph glyph-name="percent" unicode="%" horiz-adv-x="974" 
d="M504 273q0 132 59 209t159 77t160 -77t60 -209t-60 -210q-60 -77 -160 -77t-159 77q-59 78 -59 210zM616 272q0 -90 29 -139t78 -49q109 0 108 188q0 188 -108 189q-107 -1 -107 -189zM33 1017q0 132 59 210q60 78 160 78t160 -78t59 -210q0 -132 -59 -209
q-60 -77 -160 -77t-160 77q-59 77 -59 209zM102 0l656 1290h114l-655 -1290h-115zM143 1018q0 -188 107 -189q108 1 108 189t-108 188q-49 0 -78 -49t-29 -139z" />
    <glyph glyph-name="ampersand" unicode="&#x26;" horiz-adv-x="1077" 
d="M295 1028q0 -113 51 -185q18 -28 53 -75q111 60 156 116t45 132t-39 125t-109 49t-113 -48q-44 -48 -44 -114zM397 106q143 0 256 107l-307 395q-88 -53 -130 -114q-42 -60 -42 -160t64 -164t159 -64zM409 -20q-172 0 -276 95t-104 237t61 228q61 85 184 158
q-120 168 -120 304t84 223q84 86 213 86t205 -80t75 -200q0 -119 -63 -195t-199 -158l274 -359q90 139 127 334l123 -8q-45 -250 -174 -426q88 -109 166 -108q49 0 90 12v-103q-47 -32 -113 -32t-115 30q-50 30 -116 101q-150 -139 -322 -139z" />
    <glyph glyph-name="quotesingle" unicode="'" horiz-adv-x="292" 
d="M76 836v454h139v-454h-139z" />
    <glyph glyph-name="parenleft" unicode="(" horiz-adv-x="444" 
d="M47 590q0 210 67 412t185 350h145q-248 -322 -248 -762t248 -762h-145q-119 147 -185 349q-67 202 -67 413z" />
    <glyph glyph-name="parenright" unicode=")" horiz-adv-x="444" 
d="M397 590q-1 -211 -67 -413t-185 -349h-145q248 322 248 762t-248 762h145q119 -147 185 -349t67 -413z" />
    <glyph glyph-name="asterisk" unicode="*" horiz-adv-x="544" 
d="M223 1294h96v-176l168 58l29 -93l-168 -53l107 -141l-80 -58l-103 142l-100 -144l-80 58l103 141l-168 55l30 91l166 -58v178z" />
    <glyph glyph-name="plus" unicode="+" horiz-adv-x="894" 
d="M385 999h123v-313h313v-121h-313v-313h-123v313h-311v121h311v313z" />
    <glyph glyph-name="comma" unicode="," horiz-adv-x="313" 
d="M63 0v184h187v-190q0 -98 -42 -148t-145 -49v88q53 2 69 25q15 23 15 90h-84z" />
    <glyph glyph-name="hyphen" unicode="-" horiz-adv-x="505" 
d="M63 455v135h379v-135h-379z" />
    <glyph glyph-name="period" unicode="." horiz-adv-x="313" 
d="M63 0v184h187v-184h-187z" />
    <glyph glyph-name="slash" unicode="/" horiz-adv-x="507" 
d="M-20 -170l393 1520h135l-393 -1520h-135z" />
    <glyph glyph-name="zero" unicode="0" horiz-adv-x="974" 
d="M213 672v-54q0 -510 274 -509q274 0 275 509v54q0 510 -274 510t-275 -510zM920 666v-41q0 -309 -112 -477t-321 -168t-321 168t-111 477v41q0 309 112 477q113 168 321 168t320 -168t112 -477z" />
    <glyph glyph-name="one" unicode="1" horiz-adv-x="466" 
d="M12 1004v98q119 4 170 42t82 154h96v-1298h-155v1004h-193z" />
    <glyph glyph-name="two" unicode="2" horiz-adv-x="825" 
d="M805 137v-137h-770v106l334 373q139 158 202 260t63 210t-60 171q-60 64 -164 64t-160 -69t-57 -200v-69h-150v78q0 176 99 281q98 105 270 105t273 -96q101 -98 101 -246t-67 -262q-67 -116 -227 -290l-254 -279h567z" />
    <glyph glyph-name="three" unicode="3" horiz-adv-x="864" 
d="M823 348q0 -166 -101 -267q-100 -101 -282 -101t-285 112t-104 303v51h150v-53q1 -135 65 -212t176 -77t172 67t60 183t-64 175q-64 60 -176 61q-49 0 -102 -6v131q53 -6 102 -6q231 0 232 227q0 118 -58 184t-169 66q-112 0 -171 -78t-59 -217v-37h-150v39q1 188 99 303
t279 115q181 -1 279 -101t99 -268q-1 -120 -55 -194t-150 -99q213 -57 213 -301z" />
    <glyph glyph-name="four" unicode="4" horiz-adv-x="925" 
d="M602 457v624l-438 -624h438zM752 1290v-833h153v-123h-153v-334h-150v334h-582v123l592 833h140z" />
    <glyph glyph-name="five" unicode="5" horiz-adv-x="880" 
d="M458 731q-100 0 -161 -49t-84 -121l-145 12q37 221 47 717h647v-141h-526q-8 -330 -21 -418q78 125 249 125t271 -112q101 -112 101 -322t-104 -327q-104 -115 -290 -115t-288 116t-103 314v39h150v-39q0 -143 64 -225q65 -81 179 -81t178 80t64 234t-64 234t-164 79z
" />
    <glyph glyph-name="six" unicode="6" horiz-adv-x="917" 
d="M481 694q-115 0 -183 -82t-69 -212q0 -130 70 -213q69 -83 183 -83t182 82t67 213q0 131 -67 213q-68 82 -183 82zM483 -20q-211 0 -319 164t-109 462v51q0 315 110 485t318 169q175 0 273 -111t100 -293h-145q1 127 -59 202t-169 75q-151 0 -217 -144t-65 -428
q29 90 111 148q83 57 190 57q168 -1 272 -113t104 -303t-111 -306q-112 -115 -284 -115z" />
    <glyph glyph-name="seven" unicode="7" horiz-adv-x="792" 
d="M20 1149v141h752v-112q-182 -229 -252 -516t-69 -662h-162q10 754 321 1149h-590z" />
    <glyph glyph-name="eight" unicode="8" horiz-adv-x="882" 
d="M442 592q-116 0 -182 -65t-66 -181t66 -180t182 -64t181 65t65 181t-66 180t-180 64zM442 -20q-180 0 -290 100t-111 260q0 123 63 206t162 107q-90 25 -147 106t-58 199q-1 158 101 255t280 97t278 -96q100 -98 101 -256q0 -120 -57 -200t-148 -105q98 -25 163 -107
t65 -206q0 -160 -111 -260t-291 -100zM441 1188q-105 0 -167 -64t-61 -175q0 -112 61 -174q62 -62 168 -62t167 62t61 174q0 111 -62 175t-167 64z" />
    <glyph glyph-name="nine" unicode="9" horiz-adv-x="917" 
d="M688 890q0 130 -70 213t-184 83t-180 -82q-68 -82 -68 -213t68 -213t182 -82t184 82q68 82 68 212zM434 1311q211 0 320 -164t108 -463v-51q0 -315 -109 -485q-110 -169 -319 -168q-176 0 -273 110t-100 293h146q0 -127 59 -202t168 -75q150 0 216 144t67 428
q-29 -90 -112 -148t-189 -57q-168 0 -273 113q-104 114 -104 304q-1 190 111 306t284 115z" />
    <glyph glyph-name="colon" unicode=":" horiz-adv-x="313" 
d="M63 655v185h187v-185h-187zM63 0v184h187v-184h-187z" />
    <glyph glyph-name="semicolon" unicode=";" horiz-adv-x="313" 
d="M63 655v185h187v-185h-187zM63 0v184h187v-190q0 -98 -42 -148t-145 -49v88q53 2 69 25q15 23 15 90h-84z" />
    <glyph glyph-name="less" unicode="&#x3c;" horiz-adv-x="673" 
d="M55 541v161l572 287v-139l-461 -227l461 -232v-141z" />
    <glyph glyph-name="equal" unicode="=" horiz-adv-x="917" 
d="M84 690v117h750v-117h-750zM84 440v115h750v-115h-750z" />
    <glyph glyph-name="greater" unicode="&#x3e;" horiz-adv-x="673" 
d="M618 702v-161l-569 -291v141l457 232l-457 227v139z" />
    <glyph glyph-name="question" unicode="?" horiz-adv-x="790" 
d="M289 0v186h186v-186h-186zM166 915v-71h-148v80q0 178 100 282t270 104q171 0 272 -96q101 -98 102 -264q0 -100 -40 -179t-132 -189q-129 -150 -131 -250h-142q2 84 36 152t113 158q79 91 113 159q33 68 33 162t-61 157q-61 64 -165 64t-162 -69t-58 -200z" />
    <glyph glyph-name="at" unicode="@" horiz-adv-x="1343" 
d="M604 174q66 0 124 57t77 166l10 47q20 100 -12 164q-33 63 -105 64q-98 0 -156 -104t-59 -230q0 -164 121 -164zM975 164q84 0 136 96t52 298t-114 335q-115 133 -322 133q-248 0 -396 -181q-149 -181 -149 -455t140 -424t345 -150q206 0 365 90l37 -78
q-163 -115 -411 -115t-420 175t-172 496t182 534t479 212q254 0 402 -164q149 -164 149 -410t-92 -370t-228 -125q-72 0 -114 36t-51 98q-63 -133 -213 -134q-106 0 -168 75q-62 76 -62 222t91 283t239 137q68 0 117 -36t67 -93l25 113h121l-105 -477q-24 -121 70 -121z" />
    <glyph glyph-name="A" unicode="A" horiz-adv-x="989" 
d="M485 1112l-172 -590h351l-170 590h-9zM401 1290h187l385 -1290h-158l-115 393h-424l-112 -393h-148z" />
    <glyph glyph-name="B" unicode="B" horiz-adv-x="907" 
d="M258 1161v-432h178q246 0 246 216t-246 216h-178zM446 604h-188v-475h188q262 0 263 238q-1 237 -263 237zM860 358q0 -358 -418 -358h-333v1290h329q395 0 396 -336q0 -122 -62 -194t-172 -90q116 -14 188 -98t72 -214z" />
    <glyph glyph-name="C" unicode="C" horiz-adv-x="944" 
d="M59 604v82q0 307 112 466q111 159 315 159q204 -1 304 -143t99 -384v-28h-148v26q0 399 -252 400q-272 0 -272 -482v-110q0 -481 272 -481q252 0 252 399v27h148v-29q0 -242 -99 -384q-100 -142 -304 -142t-316 158t-111 466z" />
    <glyph glyph-name="D" unicode="D" horiz-adv-x="966" 
d="M109 0v1290h309q248 0 370 -145t121 -459v-82q0 -312 -122 -458t-369 -146h-309zM264 127h139q182 0 266 101q83 101 83 360v114q0 258 -83 360t-266 101h-139v-1036z" />
    <glyph glyph-name="E" unicode="E" horiz-adv-x="825" 
d="M782 131v-131h-673v1290h663v-131h-512v-428h410v-129h-410v-471h522z" />
    <glyph glyph-name="F" unicode="F" horiz-adv-x="784" 
d="M262 0h-153v1290h643v-131h-490v-450h395v-129h-395v-580z" />
    <glyph glyph-name="G" unicode="G" horiz-adv-x="995" 
d="M492 -20q-210 0 -322 160t-111 464v82q0 307 113 466t317 159q204 1 304 -139t100 -379v-19h-150v17q0 391 -249 391q-276 0 -277 -482v-110q0 -230 69 -356t204 -126q136 0 202 98q66 97 66 271v33h-228v125h373v-635h-121l-18 166q-62 -186 -272 -186z" />
    <glyph glyph-name="H" unicode="H" horiz-adv-x="1050" 
d="M264 0h-155v1290h155v-559h522v559h158v-1290h-158v602h-522v-602z" />
    <glyph glyph-name="I" unicode="I" horiz-adv-x="372" 
d="M109 1290h155v-1290h-155v1290z" />
    <glyph glyph-name="J" unicode="J" horiz-adv-x="817" 
d="M567 1290h158v-917q0 -181 -91 -287t-255 -106t-256 105t-92 282v118h149v-116q0 -129 51 -196t146 -67q190 0 190 265v919z" />
    <glyph glyph-name="K" unicode="K" horiz-adv-x="923" 
d="M264 0h-155v1290h155v-686l469 686h166l-403 -583l428 -707h-174l-363 586l-123 -172v-414z" />
    <glyph glyph-name="L" unicode="L" horiz-adv-x="813" 
d="M109 1290h155v-1159h518v-131h-673v1290z" />
    <glyph glyph-name="M" unicode="M" horiz-adv-x="1198" 
d="M250 1042v-1042h-141v1290h213l276 -991h8l277 991h207v-1290h-144v1042h-8l-295 -1042h-92l-293 1042h-8z" />
    <glyph glyph-name="N" unicode="N" horiz-adv-x="1007" 
d="M756 313v977h145v-1290h-133l-506 1008h-8v-1008h-145v1290h151l488 -977h8z" />
    <glyph glyph-name="O" unicode="O" horiz-adv-x="983" 
d="M766 598v94q0 489 -274 490q-274 0 -275 -490v-94q1 -489 275 -489t274 489zM924 678v-66q0 -309 -112 -471q-112 -161 -320 -161t-321 162q-112 162 -112 470v66q0 309 112 471t321 162q208 0 320 -162t112 -471z" />
    <glyph glyph-name="P" unicode="P" horiz-adv-x="862" 
d="M262 498v-498h-153v1290h292q432 0 433 -395q0 -397 -433 -397h-139zM262 627h133q143 0 214 60q71 61 71 207t-71 206t-214 61h-133v-534z" />
    <glyph glyph-name="Q" unicode="Q" horiz-adv-x="983" 
d="M766 598v94q0 489 -274 490q-274 0 -275 -490v-94q1 -489 275 -489t274 489zM924 678v-66q0 -270 -86 -429t-248 -193l92 -150h-164l-82 144q-184 20 -280 180t-97 448v66q0 309 112 471t321 162q208 0 320 -162t112 -471z" />
    <glyph glyph-name="R" unicode="R" horiz-adv-x="933" 
d="M262 670h201q137 0 195 59t58 182t-58 187q-60 64 -195 63h-201v-491zM262 543v-543h-153v1290h362q201 0 302 -99t101 -249t-62 -235q-62 -84 -165 -105q96 -28 137 -98q40 -70 50 -244t61 -260h-164q-39 82 -51 259t-55 230t-164 54h-199z" />
    <glyph glyph-name="S" unicode="S" horiz-adv-x="854" 
d="M53 976q-1 144 97 240q98 94 274 94t273 -110q97 -111 98 -282v-56h-142v53q0 123 -61 198q-62 75 -170 75t-164 -58t-55 -148q0 -89 40 -137t122 -83l170 -70q141 -59 209 -143q68 -85 69 -231q0 -146 -99 -242t-283 -96t-288 110t-104 316v38h141v-36q0 -150 69 -228
t183 -78t172 58t58 152q0 96 -46 149t-145 92l-158 61q-127 50 -193 134t-67 228z" />
    <glyph glyph-name="T" unicode="T" horiz-adv-x="915" 
d="M535 0h-158v1159h-344v131h850v-131h-348v-1159z" />
    <glyph glyph-name="U" unicode="U" horiz-adv-x="987" 
d="M895 430q-1 -222 -109 -336t-291 -114t-293 114t-110 336v860h156v-856q0 -324 246 -323q246 0 245 323v856h156v-860z" />
    <glyph glyph-name="V" unicode="V" horiz-adv-x="944" 
d="M555 0h-166l-375 1290h160l299 -1063h8l299 1063h150z" />
    <glyph glyph-name="W" unicode="W" horiz-adv-x="1253" 
d="M555 1290h150l188 -1028h8l186 1028h150l-252 -1290h-168l-186 1034h-8l-187 -1034h-168l-252 1290h156l184 -1028h9z" />
    <glyph glyph-name="X" unicode="X" horiz-adv-x="882" 
d="M864 1290l-342 -622l363 -668h-168l-279 528l-282 -528h-158l362 655l-340 635h168l258 -495l263 495h155z" />
    <glyph glyph-name="Y" unicode="Y" horiz-adv-x="894" 
d="M522 0h-149v467l-365 823h162l285 -649l280 649h152l-365 -823v-467z" />
    <glyph glyph-name="Z" unicode="Z" horiz-adv-x="841" 
d="M791 131v-131h-742v109l557 1050h-547v131h725v-114l-555 -1045h562z" />
    <glyph glyph-name="bracketleft" unicode="[" horiz-adv-x="423" 
d="M250 1237v-1294h164v-115h-299v1524h299v-115h-164z" />
    <glyph glyph-name="backslash" unicode="\" horiz-adv-x="507" 
d="M135 1350l393 -1520h-135l-393 1520h135z" />
    <glyph glyph-name="bracketright" unicode="]" horiz-adv-x="423" 
d="M174 -57v1294h-164v115h299v-1524h-299v115h164z" />
    <glyph glyph-name="asciicircum" unicode="^" horiz-adv-x="686" 
d="M270 1290h148l252 -413h-156l-170 290l-170 -290h-158z" />
    <glyph glyph-name="underscore" unicode="_" horiz-adv-x="681" 
d="M39 -242v127h604v-127h-604z" />
    <glyph glyph-name="grave" unicode="`" 
d="M412 1006h-90l-164 254h178z" />
    <glyph glyph-name="a" unicode="a" horiz-adv-x="780" 
d="M664 610v-442q0 -61 49 -62q29 0 55 13v-99q-41 -30 -99 -30t-100 38q-41 38 -49 103q-31 -63 -94 -104q-62 -41 -160 -41t-162 60q-63 60 -63 162t59 160t172 109l248 109v24q0 182 -149 183q-160 0 -160 -179v-24h-137v26q0 135 79 215t220 80q291 0 291 -301zM520 362
v115l-196 -94q-72 -33 -105 -70t-33 -94q0 -117 127 -117q95 0 151 70t56 190z" />
    <glyph glyph-name="b" unicode="b" horiz-adv-x="851" 
d="M98 0v1290h150v-532q27 63 87 108t150 45q145 0 232 -112q86 -113 86 -330v-45q0 -217 -86 -330t-232 -112q-90 0 -150 45t-87 108l-17 -135h-133zM653 428v39q0 158 -52 241t-148 83q-97 0 -151 -71t-54 -190v-168q0 -120 54 -190t150 -70t149 84q52 84 52 242z" />
    <glyph glyph-name="c" unicode="c" horiz-adv-x="757" 
d="M49 424v45q0 209 93 326t250 117t237 -104q80 -103 80 -269v-17h-140v17q0 252 -176 252q-195 0 -194 -320v-49q0 -319 194 -320q176 0 176 252v19h140v-21q0 -166 -80 -268t-237 -102t-250 116t-93 326z" />
    <glyph glyph-name="d" unicode="d" horiz-adv-x="851" 
d="M604 0v135q-29 -65 -88 -109t-149 -44q-145 0 -232 112q-86 113 -86 330v45q0 217 86 330t232 112q90 0 149 -44t88 -109v532h150v-1290h-150zM199 467v-39q0 -158 52 -242t148 -84t151 71q54 71 54 189v168q0 119 -54 190t-150 71t-149 -83q-52 -83 -52 -241z" />
    <glyph glyph-name="e" unicode="e" horiz-adv-x="774" 
d="M197 516h385q-2 274 -189 275q-190 -1 -196 -275zM392 -18q-157 0 -250 116t-93 326v45q0 209 94 326t253 117t244 -116q85 -114 85 -327v-53h-530q0 -313 202 -314q178 0 187 222h135q-4 -158 -87 -250t-240 -92z" />
    <glyph glyph-name="f" unicode="f" horiz-adv-x="460" 
d="M391 1194q-115 0 -115 -150v-151h168v-109h-168v-784h-149v784h-109v109h109v147q0 129 62 200t186 71q73 0 139 -31l-22 -111q-55 25 -101 25z" />
    <glyph glyph-name="g" unicode="g" horiz-adv-x="768" 
d="M211 610v-16q0 -84 43 -138t121 -54t121 54t43 138v16q0 86 -43 140t-121 55q-78 -1 -121 -55t-43 -140zM324 49q-90 -1 -138 -39t-47 -110t63 -114t176 -42t188 45t75 131q0 129 -164 129h-153zM682 614v-22q0 -131 -87 -215t-220 -84q-84 0 -146 31q-43 -31 -43 -74
q0 -68 80 -68h226q136 0 210 -62t74 -179q0 -150 -114 -227q-114 -76 -286 -76q-171 0 -273 64q-101 65 -101 181q0 70 42 119t114 70q-94 33 -94 132t106 156q-102 86 -102 232v22q0 131 86 214t216 83t218 -75q31 51 84 82t110 30v-137q-80 0 -145 -35q45 -72 45 -162z
" />
    <glyph glyph-name="h" unicode="h" horiz-adv-x="843" 
d="M248 1290v-522q27 61 89 102t148 41q129 1 199 -77t70 -211v-623h-150v588q0 201 -166 200q-86 0 -138 -64t-52 -175v-549h-150v1290h150z" />
    <glyph glyph-name="i" unicode="i" horiz-adv-x="346" 
d="M94 1051v172h158v-172h-158zM98 893h150v-893h-150v893z" />
    <glyph glyph-name="j" unicode="j" horiz-adv-x="346" 
d="M94 1051v172h158v-172h-158zM248 893v-1034q0 -223 -201 -224q-80 0 -131 35l21 107q45 -23 90 -23t58 23t13 71v1045h150z" />
    <glyph glyph-name="k" unicode="k" horiz-adv-x="778" 
d="M248 0h-150v1290h150v-829l346 432h164l-324 -393l336 -500h-168l-270 395l-84 -102v-293z" />
    <glyph glyph-name="l" unicode="l" horiz-adv-x="346" 
d="M98 1290h150v-1290h-150v1290z" />
    <glyph glyph-name="m" unicode="m" horiz-adv-x="1286" 
d="M698 760q66 151 260 151q106 -1 172 -73q64 -72 64 -193v-645h-150v596q0 193 -149 192q-82 0 -128 -66t-46 -161v-561h-150v596q0 193 -149 192q-82 0 -128 -66t-46 -161v-561h-150v893h150v-125q27 63 84 103t139 40q170 0 227 -151z" />
    <glyph glyph-name="n" unicode="n" horiz-adv-x="843" 
d="M248 549v-549h-150v893h150v-125q27 61 89 102t148 41q129 1 199 -77t70 -211v-623h-150v588q0 201 -166 200q-86 0 -138 -64t-52 -175z" />
    <glyph glyph-name="o" unicode="o" horiz-adv-x="796" 
d="M397 -18q-160 0 -254 116t-94 326v45q0 209 94 326t254 117t255 -118q95 -116 96 -325v-45q0 -210 -96 -326t-255 -116zM397 100q199 0 199 322v49q0 322 -199 322t-198 -322v-49q-1 -322 198 -322z" />
    <glyph glyph-name="p" unicode="p" horiz-adv-x="851" 
d="M248 -344h-150v1237h150v-135q27 63 87 108t150 45q145 0 232 -112q86 -113 86 -330v-45q0 -217 -86 -330t-232 -112q-90 0 -150 45t-87 108v-479zM653 428v39q0 158 -52 241t-148 83q-97 0 -151 -71t-54 -190v-168q0 -120 54 -190t150 -70t149 84q52 84 52 242z" />
    <glyph glyph-name="q" unicode="q" horiz-adv-x="851" 
d="M604 -344v479q-27 -63 -87 -108t-150 -45q-145 0 -232 112q-86 113 -86 330v45q0 217 86 330t232 112q90 0 150 -45t87 -108v135h150v-1237h-150zM199 467v-39q0 -158 52 -242t148 -84t151 71q54 71 54 189v168q0 119 -54 190t-150 71t-149 -83q-52 -83 -52 -241z" />
    <glyph glyph-name="r" unicode="r" horiz-adv-x="542" 
d="M440 772q-193 0 -192 -252v-520h-150v893h150v-145q49 160 211 159q49 0 76 -12l-9 -135q-39 12 -86 12z" />
    <glyph glyph-name="s" unicode="s" horiz-adv-x="712" 
d="M362 94q82 0 124 36q40 36 40 94t-30 85q-31 27 -109 53l-111 37q-106 37 -160 95t-54 166q0 110 76 181q78 71 218 71t218 -86q78 -85 77 -228h-129q-4 201 -180 201q-66 0 -106 -36t-39 -95q-1 -59 31 -87t104 -55l104 -34q117 -40 171 -96q55 -56 55 -166t-78 -179
t-220 -69t-233 81q-90 82 -92 234h131q2 -99 56 -151t136 -52z" />
    <glyph glyph-name="t" unicode="t" horiz-adv-x="524" 
d="M119 209v575h-119v82l39 8q57 12 81 44t38 100l28 121h82v-246h211v-109h-211v-559q0 -115 92 -114q59 0 144 51v-115q-88 -59 -187 -59q-198 0 -198 221z" />
    <glyph glyph-name="u" unicode="u" horiz-adv-x="843" 
d="M592 356v537h149v-893h-149v125q-27 -63 -88 -103t-148 -40q-130 0 -198 78t-68 210v623h152v-586q0 -203 161 -203q85 0 137 68t52 184z" />
    <glyph glyph-name="v" unicode="v" horiz-adv-x="776" 
d="M465 0h-135l-314 893h150l233 -682h9l208 682h146z" />
    <glyph glyph-name="w" unicode="w" horiz-adv-x="1075" 
d="M606 893l154 -660h8l156 660h135l-225 -893h-136l-157 676h-9l-155 -676h-135l-226 893h144l157 -660h9l153 660h127z" />
    <glyph glyph-name="x" unicode="x" horiz-adv-x="759" 
d="M733 893l-274 -428l293 -465h-166l-213 344l-217 -344h-150l293 455l-272 438h168l192 -322l197 322h149z" />
    <glyph glyph-name="y" unicode="y" horiz-adv-x="774" 
d="M352 -344h-135l111 342l-312 895h148l233 -688h9l212 688h142z" />
    <glyph glyph-name="z" unicode="z" horiz-adv-x="686" 
d="M49 776v117h586v-102l-424 -672h434v-119h-604v104l420 672h-412z" />
    <glyph glyph-name="braceleft" unicode="{" horiz-adv-x="434" 
d="M27 532v115h34q61 0 79 31q17 31 18 119v356q0 99 41 149t135 50h90v-111h-70q-61 0 -61 -76v-368q0 -93 -28 -143t-103 -64q76 -14 104 -64t27 -143v-369q0 -76 61 -75h70v-111h-90q-94 0 -135 49t-41 150v356q0 88 -18 119t-79 30h-34z" />
    <glyph glyph-name="bar" unicode="|" horiz-adv-x="342" 
d="M106 -170v1520h132v-1520h-132z" />
    <glyph glyph-name="braceright" unicode="}" horiz-adv-x="434" 
d="M408 647v-115h-35q-61 0 -79 -30q-17 -31 -18 -119v-356q0 -100 -40 -150q-41 -49 -136 -49h-90v111h70q61 0 61 75v369q0 92 28 142t103 65q-76 14 -104 64t-27 143v368q0 76 -61 76h-70v111h90q94 0 136 -49t40 -150v-356q0 -88 18 -119t79 -31h35z" />
    <glyph glyph-name="asciitilde" unicode="~" horiz-adv-x="727" 
d="M59 424q0 118 43 184q44 66 116 66t152 -62t120 -61q40 0 56 28q15 28 19 89h103q0 -117 -43 -184q-43 -66 -117 -66t-152 61q-133 102 -174 33q-16 -29 -20 -88h-103z" />
    <glyph glyph-name="uni00A0" unicode="&#xa0;" horiz-adv-x="313" 
 />
    <glyph glyph-name="exclamdown" unicode="&#xa1;" horiz-adv-x="309" 
d="M236 -229h-162v364l47 600h65l50 -600v-364zM61 874v187h187v-187h-187z" />
    <glyph glyph-name="cent" unicode="&#xa2;" horiz-adv-x="759" 
d="M193 426q0 -281 151 -320v680q-152 -39 -151 -315v-45zM49 424v45q0 190 80 305t215 133v160h94v-160q133 -14 203 -115t70 -253v-17h-131v19q0 221 -142 250v-687q141 29 142 248v21h131v-21q0 -152 -70 -252t-203 -114v-166h-94v166q-137 18 -216 132t-79 306z" />
    <glyph glyph-name="sterling" unicode="&#xa3;" horiz-adv-x="950" 
d="M209 84q86 0 115 135q-54 45 -100 45t-72 -24t-25 -67q1 -41 23 -65t59 -24zM326 941q0 -101 45 -236h270v-105h-233q55 -162 55 -278q0 -31 -8 -89q43 -41 67 -61t65 -40q42 -20 85 -19q74 0 106 53t31 166h113q8 -174 -56 -263t-192 -89q-129 0 -258 141
q-74 -141 -211 -141q-80 0 -133 50q-54 50 -54 138t58 143t128 55q72 0 128 -32q-4 117 -66 266h-166v105h123q-47 123 -47 239q0 160 90 263t249 103t252 -110q93 -111 93 -307h-135q0 287 -209 287q-96 0 -143 -69t-47 -170z" />
    <glyph glyph-name="yen" unicode="&#xa5;" horiz-adv-x="894" 
d="M115 557v105h207l-314 628h160l285 -583l280 583h154l-318 -628h211v-105h-262v-117h262v-104h-262v-336h-143v336h-260v104h260v117h-260z" />
    <glyph glyph-name="section" unicode="&#xa7;" horiz-adv-x="823" 
d="M174 633q0 -61 33 -101t104 -79l228 -119l10 -6q100 43 100 153q0 61 -34 103t-103 78l-227 120q-4 0 -9 4q-102 -43 -102 -153zM412 1202q-176 0 -176 -164q0 -82 98 -133l231 -119q215 -105 215 -274t-133 -252q78 -74 78 -190t-85 -191q-85 -76 -226 -76t-236 83
q-94 83 -104 235l116 8q14 -105 76 -161t146 -56q176 0 176 165q0 83 -99 134l-231 119q-215 105 -215 275q0 171 131 249q-76 70 -76 188t85 194q85 75 227 75t235 -83q94 -83 105 -235l-117 -8q-13 105 -75 161t-146 56z" />
    <glyph glyph-name="dieresis" unicode="&#xa8;" 
d="M326 1028v166h143v-166h-143zM98 1028v166h144v-166h-144z" />
    <glyph glyph-name="copyright" unicode="&#xa9;" horiz-adv-x="1306" 
d="M379 616v54q0 184 73 282q72 98 202 98t192 -86q62 -87 63 -239v-18h-116v16q0 231 -138 231q-154 0 -153 -270v-82q0 -270 153 -270q137 0 138 229v19h116v-19q0 -153 -62 -239q-63 -86 -193 -86t-202 98t-73 282zM653 1223q-225 0 -362 -162t-137 -415t137 -415
q137 -161 362 -161t363 161q137 162 137 415t-137 415q-138 162 -363 162zM653 1313q262 -1 432 -189t170 -479t-170 -479t-432 -188t-432 188t-170 479t170 479t432 189z" />
    <glyph glyph-name="ordfeminine" unicode="&#xaa;" horiz-adv-x="518" 
d="M434 1108v-258q0 -31 29 -31q20 0 33 4v-69q-31 -20 -72 -21q-80 0 -96 86q-16 -37 -58 -63t-102 -25q-60 0 -100 38t-39 86q0 48 11 75q21 51 130 104l156 66v10q0 102 -86 102t-86 -98v-14h-107v14q0 84 51 135t144 51q192 1 192 -192zM326 965v57l-111 -51
q-74 -35 -74 -92q1 -57 61 -57t92 37q32 38 32 106z" />
    <glyph glyph-name="guillemotleft" unicode="&#xab;" horiz-adv-x="749" 
d="M385 383v127l305 264v-162l-192 -166l192 -167v-160zM59 383v127l306 264v-162l-193 -166l193 -167v-160z" />
    <glyph glyph-name="registered" unicode="&#xae;" horiz-adv-x="686" 
d="M653 969q0 -147 -89 -243t-221 -97q-132 0 -221 96q-89 95 -89 243t89 245t221 97t221 -96q89 -98 89 -245zM94 968q0 -124 70 -203t179 -79q111 0 179 79t68 205t-69 204t-179 78t-178 -80q-70 -80 -70 -204zM287 983h61q70 0 70 53t-70 54h-61v-107zM287 924v-129h-72
v356h152q121 0 120 -111q0 -36 -19 -60t-50 -28q54 -12 58 -76t18 -81h-74q-10 12 -17 71q0 57 -53 58h-63z" />
    <glyph glyph-name="macron" unicode="&#xaf;" 
d="M98 1032v119h371v-119h-371z" />
    <glyph glyph-name="degree" unicode="&#xb0;" horiz-adv-x="495" 
d="M457 1100q-1 -88 -61 -148t-149 -59q-89 0 -150 59q-60 60 -60 148t60 147q59 59 149 59t150 -58q60 -60 61 -148zM143 1100q0 -49 28 -80t77 -31t78 31t28 80q0 49 -28 79q-29 29 -78 29t-77 -30t-28 -78z" />
    <glyph glyph-name="plusminus" unicode="&#xb1;" horiz-adv-x="901" 
d="M80 219v123h741v-123h-741zM387 1053h123v-256h311v-119h-311v-256h-123v256h-307v119h307v256z" />
    <glyph glyph-name="twosuperior" unicode="&#xb2;" horiz-adv-x="442" 
d="M397 831v-92h-358v78l147 152q43 47 57 62q42 49 44 99q0 76 -72 76t-72 -96v-25h-104v31q0 82 46 131t131 49t132 -42q48 -42 48 -122t-111 -196l-107 -105h219z" />
    <glyph glyph-name="threesuperior" unicode="&#xb3;" horiz-adv-x="440" 
d="M401 906q0 -85 -47 -129t-133 -44t-135 49t-49 133v23h104v-23q0 -96 78 -96t78 80t-80 80q-25 0 -39 -2v80q14 -2 39 -2q78 0 78 79t-74 78q-78 0 -78 -98v-18h-100v20q0 84 46 133t131 49t132 -43t47 -116q0 -101 -82 -121q84 -27 84 -112z" />
    <glyph glyph-name="acute" unicode="&#xb4;" 
d="M248 1006h-90l75 254h179z" />
    <glyph glyph-name="paragraph" unicode="&#xb6;" horiz-adv-x="925" 
d="M440 0v625q-190 0 -296 88q-105 87 -105 243t105 245t296 89h377v-1290h-129v1167h-123v-1167h-125z" />
    <glyph glyph-name="periodcentered" unicode="&#xb7;" horiz-adv-x="325" 
d="M70 424v184h186v-184h-186z" />
    <glyph glyph-name="cedilla" unicode="&#xb8;" 
d="M461 -212q0 -71 -49 -109t-121 -37q-104 0 -172 67l31 80q59 -59 134 -59t74 55q0 78 -163 65l57 173h72l-29 -97q70 -2 118 -34t48 -104z" />
    <glyph glyph-name="onesuperior" unicode="&#xb9;" horiz-adv-x="272" 
d="M23 1135v71q49 2 73 20t37 64h80v-551h-111v396h-79z" />
    <glyph glyph-name="ordmasculine" unicode="&#xba;" horiz-adv-x="512" 
d="M367 997v37q0 174 -111 174t-111 -174v-37q0 -174 111 -174t111 174zM481 1028v-24q0 -127 -60 -200q-61 -73 -165 -73t-166 73q-61 73 -61 200v24q0 127 61 200q62 72 166 72t165 -72q60 -73 60 -200z" />
    <glyph glyph-name="guillemotright" unicode="&#xbb;" horiz-adv-x="749" 
d="M690 510v-127l-305 -264v160l193 167l-193 166v162zM365 510v-127l-306 -264v160l193 167l-193 166v162z" />
    <glyph glyph-name="onequarter" unicode="&#xbc;" horiz-adv-x="647" 
d="M330 209v219l-156 -219h156zM430 549v-340h64v-86h-64v-123h-100v123h-252v86l246 340h106zM61 612v66h525v-66h-525zM172 1135v71q49 2 75 20t36 64h82v-551h-111v396h-82z" />
    <glyph glyph-name="onehalf" unicode="&#xbd;" horiz-adv-x="647" 
d="M61 612v66h525v-66h-525zM494 92v-92h-359v78l148 151q43 47 56 63q44 52 44 99q0 76 -72 76t-71 -96v-25h-103v31q0 82 45 131t130 49t132 -42q47 -41 47 -125t-106 -193l-106 -105h215zM172 1135v71q49 2 75 20t36 64h82v-551h-111v396h-82z" />
    <glyph glyph-name="threequarters" unicode="&#xbe;" horiz-adv-x="647" 
d="M496 906q0 -85 -47 -129t-133 -44t-136 49q-49 49 -49 133v23h105v-23q0 -96 78 -96t77 80q0 80 -80 80q-25 0 -39 -2v80q14 -2 39 -2q78 0 78 79t-74 78q-78 0 -77 -98v-18h-101v20q0 84 46 133t131 49t132 -43t48 -116q0 -101 -82 -121q84 -27 84 -112zM330 209v219
l-156 -219h156zM430 549v-340h64v-86h-64v-123h-100v123h-252v86l246 340h106zM61 612v66h525v-66h-525z" />
    <glyph glyph-name="questiondown" unicode="&#xbf;" horiz-adv-x="790" 
d="M502 1061v-187h-187v187h187zM178 98q0 -94 62 -157t166 -63t161 68q57 69 58 199v72h147v-80q0 -178 -99 -282q-99 -105 -271 -105t-272 97q-101 97 -101 264q0 100 40 179t132 189q129 150 131 250h141q-1 -83 -35 -151t-113 -159t-113 -159t-34 -162z" />
    <glyph glyph-name="Agrave" unicode="&#xc0;" horiz-adv-x="989" 
d="M543 1364h-90l-164 256h178zM485 1112l-172 -590h351l-170 590h-9zM401 1290h187l385 -1290h-158l-115 393h-424l-112 -393h-148z" />
    <glyph glyph-name="Aacute" unicode="&#xc1;" horiz-adv-x="989" 
d="M539 1364h-90l75 256h178zM485 1112l-172 -590h351l-170 590h-9zM401 1290h187l385 -1290h-158l-115 393h-424l-112 -393h-148z" />
    <glyph glyph-name="Acircumflex" unicode="&#xc2;" horiz-adv-x="989" 
d="M410 1614h172l133 -256h-109l-110 158l-113 -158h-109zM485 1112l-172 -590h351l-170 590h-9zM401 1290h187l385 -1290h-158l-115 393h-424l-112 -393h-148z" />
    <glyph glyph-name="Atilde" unicode="&#xc3;" horiz-adv-x="989" 
d="M264 1372q0 229 133 230q49 0 105 -54t80 -55q49 0 51 104h92q0 -227 -133 -227q-48 0 -104 54t-80 55q-50 -1 -52 -107h-92zM485 1112l-172 -590h351l-170 590h-9zM401 1290h187l385 -1290h-158l-115 393h-424l-112 -393h-148z" />
    <glyph glyph-name="Adieresis" unicode="&#xc4;" horiz-adv-x="989" 
d="M537 1386v168h143v-168h-143zM309 1386v168h144v-168h-144zM485 1112l-172 -590h351l-170 590h-9zM401 1290h187l385 -1290h-158l-115 393h-424l-112 -393h-148z" />
    <glyph glyph-name="Aring" unicode="&#xc5;" horiz-adv-x="989" 
d="M418 1497q0 -78 78 -78t77 78q0 35 -20 57t-57 21q-38 1 -58 -21t-20 -57zM330 1497q0 68 46 113t119 45t119 -45t45 -113q0 -68 -45 -114q-44 -46 -118 -46t-120 46t-46 114zM485 1112l-172 -590h351l-170 590h-9zM401 1290h187l385 -1290h-158l-115 393h-424l-112 -393
h-148z" />
    <glyph glyph-name="AE" unicode="&#xc6;" horiz-adv-x="1400" 
d="M707 541v598h-9l-280 -598h289zM707 0v412h-349l-192 -412h-150l609 1290h723v-131h-488v-428h385v-129h-385v-471h498v-131h-651z" />
    <glyph glyph-name="Ccedilla" unicode="&#xc7;" horiz-adv-x="944" 
d="M674 -212q0 -71 -49 -109t-121 -37q-104 0 -172 67l30 80q58 -59 134 -59t75 55q0 78 -163 65l43 132q-188 14 -290 172q-101 158 -102 450v82q0 307 112 466q111 159 315 159q204 -1 304 -143t99 -384v-28h-148v26q0 399 -252 400q-272 0 -272 -482v-110
q0 -481 272 -481q252 0 252 399v27h148v-29q0 -230 -91 -370t-274 -154l-16 -56q70 -2 118 -34t48 -104z" />
    <glyph glyph-name="Egrave" unicode="&#xc8;" horiz-adv-x="825" 
d="M782 131v-131h-673v1290h663v-131h-512v-428h410v-129h-410v-471h522zM498 1364h-90l-164 256h178z" />
    <glyph glyph-name="Eacute" unicode="&#xc9;" horiz-adv-x="825" 
d="M782 131v-131h-673v1290h663v-131h-512v-428h410v-129h-410v-471h522zM492 1364h-91l76 256h178z" />
    <glyph glyph-name="Ecircumflex" unicode="&#xca;" horiz-adv-x="825" 
d="M365 1614h172l133 -256h-109l-110 158l-113 -158h-109zM782 131v-131h-673v1290h663v-131h-512v-428h410v-129h-410v-471h522z" />
    <glyph glyph-name="Edieresis" unicode="&#xcb;" horiz-adv-x="825" 
d="M782 131v-131h-673v1290h663v-131h-512v-428h410v-129h-410v-471h522zM492 1386v168h143v-168h-143zM264 1386v168h144v-168h-144z" />
    <glyph glyph-name="Igrave" unicode="&#xcc;" horiz-adv-x="372" 
d="M236 1364h-91l-163 256h178zM109 1290h155v-1290h-155v1290z" />
    <glyph glyph-name="Iacute" unicode="&#xcd;" horiz-adv-x="372" 
d="M229 1364h-90l76 256h178zM109 1290h155v-1290h-155v1290z" />
    <glyph glyph-name="Icircumflex" unicode="&#xce;" horiz-adv-x="372" 
d="M102 1614h172l134 -256h-109l-111 158l-112 -158h-109zM109 1290h155v-1290h-155v1290z" />
    <glyph glyph-name="Idieresis" unicode="&#xcf;" horiz-adv-x="372" 
d="M229 1386v168h144v-168h-144zM2 1386v168h143v-168h-143zM109 1290h155v-1290h-155v1290z" />
    <glyph glyph-name="Eth" unicode="&#xd0;" horiz-adv-x="966" 
d="M268 127h140q182 0 264 101t82 360v114q0 258 -82 360t-264 101h-140v-434h172v-125h-172v-477zM29 604v125h82v561h309q248 0 370 -145t121 -459v-82q0 -313 -121 -459q-122 -145 -370 -145h-309v604h-82z" />
    <glyph glyph-name="Ntilde" unicode="&#xd1;" horiz-adv-x="1007" 
d="M756 313v977h145v-1290h-133l-506 1008h-8v-1008h-145v1290h151l488 -977h8zM281 1372q0 229 133 230q49 0 104 -54t80 -55q49 0 51 104h92q0 -227 -133 -227q-49 0 -104 54t-80 55q-49 -1 -51 -107h-92z" />
    <glyph glyph-name="Ograve" unicode="&#xd2;" horiz-adv-x="983" 
d="M766 598v94q0 489 -274 490q-274 0 -275 -490v-94q1 -489 275 -489t274 489zM924 678v-66q0 -309 -112 -471q-112 -161 -320 -161t-321 162q-112 162 -112 470v66q0 309 112 471t321 162q208 0 320 -162t112 -471zM541 1364h-90l-164 256h178z" />
    <glyph glyph-name="Oacute" unicode="&#xd3;" horiz-adv-x="983" 
d="M766 598v94q0 489 -274 490q-274 0 -275 -490v-94q1 -489 275 -489t274 489zM924 678v-66q0 -309 -112 -471q-112 -161 -320 -161t-321 162q-112 162 -112 470v66q0 309 112 471t321 162q208 0 320 -162t112 -471zM535 1364h-91l76 256h178z" />
    <glyph glyph-name="Ocircumflex" unicode="&#xd4;" horiz-adv-x="983" 
d="M408 1614h172l133 -256h-109l-110 158l-113 -158h-109zM766 598v94q0 489 -274 490q-274 0 -275 -490v-94q1 -489 275 -489t274 489zM924 678v-66q0 -309 -112 -471q-112 -161 -320 -161t-321 162q-112 162 -112 470v66q0 309 112 471t321 162q208 0 320 -162t112 -471z
" />
    <glyph glyph-name="Otilde" unicode="&#xd5;" horiz-adv-x="983" 
d="M766 598v94q0 489 -274 490q-274 0 -275 -490v-94q1 -489 275 -489t274 489zM924 678v-66q0 -309 -112 -471q-112 -161 -320 -161t-321 162q-112 162 -112 470v66q0 309 112 471t321 162q208 0 320 -162t112 -471zM262 1372q0 229 133 230q49 0 105 -54t80 -55
q49 0 51 104h92q0 -227 -133 -227q-48 0 -104 54t-80 55q-50 -1 -52 -107h-92z" />
    <glyph glyph-name="Odieresis" unicode="&#xd6;" horiz-adv-x="983" 
d="M766 598v94q0 489 -274 490q-274 0 -275 -490v-94q1 -489 275 -489t274 489zM924 678v-66q0 -309 -112 -471q-112 -161 -320 -161t-321 162q-112 162 -112 470v66q0 309 112 471t321 162q208 0 320 -162t112 -471zM535 1386v168h143v-168h-143zM307 1386v168h144v-168
h-144z" />
    <glyph glyph-name="multiply" unicode="&#xd7;" horiz-adv-x="768" 
d="M301 618l-229 228l84 86l227 -230l225 230l86 -86l-227 -228l227 -227l-86 -84l-225 230l-227 -230l-84 84z" />
    <glyph glyph-name="Oslash" unicode="&#xd8;" horiz-adv-x="983" 
d="M768 598v102q0 160 -33 271l-428 -774q66 -88 185 -88q276 0 276 489zM215 590q0 -174 35 -281l430 778q-68 94 -188 95q-276 0 -277 -490v-102zM59 678q0 309 112 471t321 162q156 0 260 -94l57 102l88 -55l-74 -134q100 -164 101 -452v-66q0 -309 -112 -471t-320 -161
q-156 0 -256 88l-64 -115l-88 55l80 144q-104 160 -105 460v66z" />
    <glyph glyph-name="Ugrave" unicode="&#xd9;" horiz-adv-x="987" 
d="M895 430q-1 -222 -109 -336t-291 -114t-293 114t-110 336v860h156v-856q0 -324 246 -323q246 0 245 323v856h156v-860zM543 1364h-90l-164 256h178z" />
    <glyph glyph-name="Uacute" unicode="&#xda;" horiz-adv-x="987" 
d="M895 430q-1 -222 -109 -336t-291 -114t-293 114t-110 336v860h156v-856q0 -324 246 -323q246 0 245 323v856h156v-860zM539 1364h-90l75 256h178z" />
    <glyph glyph-name="Ucircumflex" unicode="&#xdb;" horiz-adv-x="987" 
d="M410 1614h172l133 -256h-109l-110 158l-113 -158h-109zM895 430q-1 -222 -109 -336t-291 -114t-293 114t-110 336v860h156v-856q0 -324 246 -323q246 0 245 323v856h156v-860z" />
    <glyph glyph-name="Udieresis" unicode="&#xdc;" horiz-adv-x="987" 
d="M895 430q-1 -222 -109 -336t-291 -114t-293 114t-110 336v860h156v-856q0 -324 246 -323q246 0 245 323v856h156v-860zM537 1386v168h143v-168h-143zM309 1386v168h144v-168h-144z" />
    <glyph glyph-name="Yacute" unicode="&#xdd;" horiz-adv-x="894" 
d="M492 1364h-91l76 256h178zM522 0h-149v467l-365 823h162l285 -649l280 649h152l-365 -823v-467z" />
    <glyph glyph-name="Thorn" unicode="&#xde;" horiz-adv-x="868" 
d="M262 260v-260h-153v1290h153v-237h139q432 0 433 -398q0 -395 -433 -395h-139zM262 389h133q143 -1 214 59t71 207t-71 207t-214 62h-133v-535z" />
    <glyph glyph-name="germandbls" unicode="&#xdf;" horiz-adv-x="856" 
d="M98 918q0 176 86 284t238 109t237 -85q86 -86 86 -215t-50 -201t-126 -91q109 -23 175 -115t65 -227q0 -181 -98 -283t-240 -102q-66 0 -115 18v123q43 -16 97 -16q94 1 152 69q59 68 59 193t-65 198t-173 70q-41 0 -68 -2v131q20 -2 66 -2q178 0 178 211q0 91 -45 147
t-129 56q-180 0 -180 -275v-913h-150v918z" />
    <glyph glyph-name="agrave" unicode="&#xe0;" horiz-adv-x="780" 
d="M430 1006h-90l-164 254h178zM664 610v-442q0 -61 49 -62q29 0 55 13v-99q-41 -30 -99 -30t-100 38q-41 38 -49 103q-31 -63 -94 -104q-62 -41 -160 -41t-162 60q-63 60 -63 162t59 160t172 109l248 109v24q0 182 -149 183q-160 0 -160 -179v-24h-137v26q0 135 79 215
t220 80q291 0 291 -301zM520 362v115l-196 -94q-72 -33 -105 -70t-33 -94q0 -117 127 -117q95 0 151 70t56 190z" />
    <glyph glyph-name="aacute" unicode="&#xe1;" horiz-adv-x="780" 
d="M420 1006h-90l76 254h178zM664 610v-442q0 -61 49 -62q29 0 55 13v-99q-41 -30 -99 -30t-100 38q-41 38 -49 103q-31 -63 -94 -104q-62 -41 -160 -41t-162 60q-63 60 -63 162t59 160t172 109l248 109v24q0 182 -149 183q-160 0 -160 -179v-24h-137v26q0 135 79 215
t220 80q291 0 291 -301zM520 362v115l-196 -94q-72 -33 -105 -70t-33 -94q0 -117 127 -117q95 0 151 70t56 190z" />
    <glyph glyph-name="acircumflex" unicode="&#xe2;" horiz-adv-x="780" 
d="M295 1245h164l133 -256h-105l-110 158l-113 -158h-104zM664 610v-442q0 -61 49 -62q29 0 55 13v-99q-41 -30 -99 -30t-100 38q-41 38 -49 103q-31 -63 -94 -104q-62 -41 -160 -41t-162 60q-63 60 -63 162t59 160t172 109l248 109v24q0 182 -149 183q-160 0 -160 -179v-24
h-137v26q0 135 79 215t220 80q291 0 291 -301zM520 362v115l-196 -94q-72 -33 -105 -70t-33 -94q0 -117 127 -117q95 0 151 70t56 190z" />
    <glyph glyph-name="atilde" unicode="&#xe3;" horiz-adv-x="780" 
d="M150 1014q0 227 133 227q49 0 104 -54t80 -54q49 0 51 106h92q0 -229 -133 -229q-49 0 -104 54t-80 54q-49 0 -51 -104h-92zM664 610v-442q0 -61 49 -62q29 0 55 13v-99q-41 -30 -99 -30t-100 38q-41 38 -49 103q-31 -63 -94 -104q-62 -41 -160 -41t-162 60
q-63 60 -63 162t59 160t172 109l248 109v24q0 182 -149 183q-160 0 -160 -179v-24h-137v26q0 135 79 215t220 80q291 0 291 -301zM520 362v115l-196 -94q-72 -33 -105 -70t-33 -94q0 -117 127 -117q95 0 151 70t56 190z" />
    <glyph glyph-name="adieresis" unicode="&#xe4;" horiz-adv-x="780" 
d="M420 1028v166h143v-166h-143zM193 1028v166h143v-166h-143zM664 610v-442q0 -61 49 -62q29 0 55 13v-99q-41 -30 -99 -30t-100 38q-41 38 -49 103q-31 -63 -94 -104q-62 -41 -160 -41t-162 60q-63 60 -63 162t59 160t172 109l248 109v24q0 182 -149 183q-160 0 -160 -179
v-24h-137v26q0 135 79 215t220 80q291 0 291 -301zM520 362v115l-196 -94q-72 -33 -105 -70t-33 -94q0 -117 127 -117q95 0 151 70t56 190z" />
    <glyph glyph-name="aring" unicode="&#xe5;" horiz-adv-x="780" 
d="M209 1139q0 69 46 113t119 44t119 -45t46 -113t-46 -114q-46 -45 -119 -45t-119 46t-46 114zM297 1139q0 -78 78 -78t78 78q-1 35 -21 57t-57 21q-37 1 -57 -21t-21 -57zM664 610v-442q0 -61 49 -62q29 0 55 13v-99q-41 -30 -99 -30t-100 38q-41 38 -49 103
q-31 -63 -94 -104q-62 -41 -160 -41t-162 60q-63 60 -63 162t59 160t172 109l248 109v24q0 182 -149 183q-160 0 -160 -179v-24h-137v26q0 135 79 215t220 80q291 0 291 -301zM520 362v115l-196 -94q-72 -33 -105 -70t-33 -94q0 -117 127 -117q95 0 151 70t56 190z" />
    <glyph glyph-name="ae" unicode="&#xe6;" horiz-adv-x="1241" 
d="M336 100q78 0 131 71t53 194v49h-114q-98 0 -158 -41t-62 -123q0 -150 150 -150zM662 512h387q-6 279 -189 279q-92 0 -145 -69t-53 -210zM1192 414h-530q0 -311 200 -312q92 0 137 54t50 168h137q-6 -160 -88 -251t-234 -91q-205 0 -278 188q-27 -82 -100 -134
q-72 -52 -184 -52t-186 70t-75 192q0 122 96 194t260 72h123v98q0 82 -37 132t-112 51q-160 0 -160 -179v-20h-137v24q0 133 79 213t216 80q172 0 241 -139q86 139 250 139q164 -1 248 -115t84 -327v-55z" />
    <glyph glyph-name="ccedilla" unicode="&#xe7;" horiz-adv-x="757" 
d="M582 -212q0 -71 -50 -109t-120 -37q-104 0 -172 67l30 80q58 -59 134 -59t75 55q0 78 -164 65l43 134q-143 12 -226 127t-83 313v45q0 209 93 326t250 117t237 -104q80 -103 80 -269v-17h-140v17q0 252 -176 252q-195 0 -194 -320v-49q0 -319 194 -320q176 0 176 252v19
h140v-21q0 -154 -71 -254t-206 -114l-16 -58q70 -2 118 -34t48 -104z" />
    <glyph glyph-name="egrave" unicode="&#xe8;" horiz-adv-x="774" 
d="M451 1006h-91l-163 254h178zM197 516h385q-2 274 -189 275q-190 -1 -196 -275zM392 -18q-157 0 -250 116t-93 326v45q0 209 94 326t253 117t244 -116q85 -114 85 -327v-53h-530q0 -313 202 -314q178 0 187 222h135q-4 -158 -87 -250t-240 -92z" />
    <glyph glyph-name="eacute" unicode="&#xe9;" horiz-adv-x="774" 
d="M197 516h385q-2 274 -189 275q-190 -1 -196 -275zM392 -18q-157 0 -250 116t-93 326v45q0 209 94 326t253 117t244 -116q85 -114 85 -327v-53h-530q0 -313 202 -314q178 0 187 222h135q-4 -158 -87 -250t-240 -92zM440 1006h-90l76 254h178z" />
    <glyph glyph-name="ecircumflex" unicode="&#xea;" horiz-adv-x="774" 
d="M197 516h385q-2 274 -189 275q-190 -1 -196 -275zM392 -18q-157 0 -250 116t-93 326v45q0 209 94 326t253 117t244 -116q85 -114 85 -327v-53h-530q0 -313 202 -314q178 0 187 222h135q-4 -158 -87 -250t-240 -92zM313 1245h164l133 -256h-104l-111 158l-112 -158h-105z
" />
    <glyph glyph-name="edieresis" unicode="&#xeb;" horiz-adv-x="774" 
d="M197 516h385q-2 274 -189 275q-190 -1 -196 -275zM392 -18q-157 0 -250 116t-93 326v45q0 209 94 326t253 117t244 -116q85 -114 85 -327v-53h-530q0 -313 202 -314q178 0 187 222h135q-4 -158 -87 -250t-240 -92zM440 1028v166h144v-166h-144zM213 1028v166h143v-166
h-143z" />
    <glyph glyph-name="igrave" unicode="&#xec;" horiz-adv-x="346" 
d="M223 1006h-90l-164 254h178zM98 893h150v-893h-150v893z" />
    <glyph glyph-name="iacute" unicode="&#xed;" horiz-adv-x="346" 
d="M98 893h150v-893h-150v893zM213 1006h-90l76 254h178z" />
    <glyph glyph-name="icircumflex" unicode="&#xee;" horiz-adv-x="346" 
d="M98 893h150v-893h-150v893zM92 1255h166l113 -256h-107l-90 158l-90 -158h-107z" />
    <glyph glyph-name="idieresis" unicode="&#xef;" horiz-adv-x="346" 
d="M98 893h150v-893h-150v893zM209 1028v166h141v-166h-141zM0 1028v166h141v-166h-141z" />
    <glyph glyph-name="eth" unicode="&#xf0;" horiz-adv-x="794" 
d="M397 100q199 0 199 322v43q0 322 -199 321q-199 0 -198 -321v-43q-1 -322 198 -322zM745 424q0 -209 -94 -326q-94 -116 -254 -116t-254 116t-94 326v43q0 207 92 323t246 115q106 0 168 -84q-39 113 -141 221l-224 -84l-34 84l184 70q-90 72 -174 119l92 86
q111 -66 211 -156l166 64l37 -84l-135 -51q209 -244 208 -619v-47z" />
    <glyph glyph-name="ntilde" unicode="&#xf1;" horiz-adv-x="843" 
d="M207 1014q0 227 133 227q49 0 104 -54t80 -54q49 0 51 106h93q0 -229 -133 -229q-49 0 -105 54t-80 54q-49 0 -51 -104h-92zM248 549v-549h-150v893h150v-125q27 61 89 102t148 41q129 1 199 -77t70 -211v-623h-150v588q0 201 -166 200q-86 0 -138 -64t-52 -175z" />
    <glyph glyph-name="ograve" unicode="&#xf2;" horiz-adv-x="796" 
d="M449 1006h-91l-163 254h178zM397 -18q-160 0 -254 116t-94 326v45q0 209 94 326t254 117t255 -118q95 -116 96 -325v-45q0 -210 -96 -326t-255 -116zM397 100q199 0 199 322v49q0 322 -199 322t-198 -322v-49q-1 -322 198 -322z" />
    <glyph glyph-name="oacute" unicode="&#xf3;" horiz-adv-x="796" 
d="M397 -18q-160 0 -254 116t-94 326v45q0 209 94 326t254 117t255 -118q95 -116 96 -325v-45q0 -210 -96 -326t-255 -116zM397 100q199 0 199 322v49q0 322 -199 322t-198 -322v-49q-1 -322 198 -322zM438 1006h-90l76 254h178z" />
    <glyph glyph-name="ocircumflex" unicode="&#xf4;" horiz-adv-x="796" 
d="M397 -18q-160 0 -254 116t-94 326v45q0 209 94 326t254 117t255 -118q95 -116 96 -325v-45q0 -210 -96 -326t-255 -116zM397 100q199 0 199 322v49q0 322 -199 322t-198 -322v-49q-1 -322 198 -322zM317 1245h164l133 -256h-104l-111 158l-112 -158h-105z" />
    <glyph glyph-name="otilde" unicode="&#xf5;" horiz-adv-x="796" 
d="M168 1014q0 227 133 227q49 0 105 -54t79 -54q49 0 52 106h92q0 -229 -133 -229q-48 0 -104 54t-81 54q-49 0 -51 -104h-92zM397 -18q-160 0 -254 116t-94 326v45q0 209 94 326t254 117t255 -118q95 -116 96 -325v-45q0 -210 -96 -326t-255 -116zM397 100q199 0 199 322
v49q0 322 -199 322t-198 -322v-49q-1 -322 198 -322z" />
    <glyph glyph-name="odieresis" unicode="&#xf6;" horiz-adv-x="796" 
d="M397 -18q-160 0 -254 116t-94 326v45q0 209 94 326t254 117t255 -118q95 -116 96 -325v-45q0 -210 -96 -326t-255 -116zM397 100q199 0 199 322v49q0 322 -199 322t-198 -322v-49q-1 -322 198 -322zM440 1028v166h144v-166h-144zM213 1028v166h143v-166h-143z" />
    <glyph glyph-name="divide" unicode="&#xf7;" horiz-adv-x="894" 
d="M360 236v167h177v-167h-177zM360 842v170h177v-170h-177zM74 563v121h747v-121h-747z" />
    <glyph glyph-name="oslash" unicode="&#xf8;" horiz-adv-x="796" 
d="M195 420q0 -102 18 -170l317 491q-51 53 -133 54q-203 0 -202 -322v-53zM397 98q205 0 205 322v53q0 94 -20 172l-318 -493q51 -54 133 -54zM49 424v45q0 209 94 326t254 116q115 0 201 -63l59 92l80 -53l-71 -111q82 -121 82 -307v-45q0 -209 -96 -326t-255 -116
q-123 0 -200 63l-60 -92l-78 55l70 109q-80 115 -80 307z" />
    <glyph glyph-name="ugrave" unicode="&#xf9;" horiz-adv-x="843" 
d="M467 1006h-90l-164 254h178zM592 356v537h149v-893h-149v125q-27 -63 -88 -103t-148 -40q-130 0 -198 78t-68 210v623h152v-586q0 -203 161 -203q85 0 137 68t52 184z" />
    <glyph glyph-name="uacute" unicode="&#xfa;" horiz-adv-x="843" 
d="M592 356v537h149v-893h-149v125q-27 -63 -88 -103t-148 -40q-130 0 -198 78t-68 210v623h152v-586q0 -203 161 -203q85 0 137 68t52 184zM457 1006h-90l75 254h179z" />
    <glyph glyph-name="ucircumflex" unicode="&#xfb;" horiz-adv-x="843" 
d="M592 356v537h149v-893h-149v125q-27 -63 -88 -103t-148 -40q-130 0 -198 78t-68 210v623h152v-586q0 -203 161 -203q85 0 137 68t52 184zM336 1245h164l133 -256h-105l-110 158l-113 -158h-104z" />
    <glyph glyph-name="udieresis" unicode="&#xfc;" horiz-adv-x="843" 
d="M592 356v537h149v-893h-149v125q-27 -63 -88 -103t-148 -40q-130 0 -198 78t-68 210v623h152v-586q0 -203 161 -203q85 0 137 68t52 184zM459 1028v166h143v-166h-143zM231 1028v166h144v-166h-144z" />
    <glyph glyph-name="yacute" unicode="&#xfd;" horiz-adv-x="774" 
d="M428 1006h-90l76 254h178zM352 -344h-135l111 342l-312 895h148l233 -688h9l212 688h142z" />
    <glyph glyph-name="thorn" unicode="&#xfe;" horiz-adv-x="851" 
d="M248 -344h-150v1634h150v-532q27 63 87 108t150 45q145 0 232 -112q86 -113 86 -330v-45q0 -217 -86 -330t-232 -112q-90 0 -150 45t-87 108v-479zM653 428v39q0 158 -52 241t-148 83q-97 0 -151 -71t-54 -190v-168q0 -120 54 -190t150 -70t149 84q52 84 52 242z" />
    <glyph glyph-name="ydieresis" unicode="&#xff;" horiz-adv-x="774" 
d="M430 1028v166h143v-166h-143zM203 1028v166h143v-166h-143zM352 -344h-135l111 342l-312 895h148l233 -688h9l212 688h142z" />
    <glyph glyph-name="Amacron" unicode="&#x100;" horiz-adv-x="989" 
d="M309 1391v118h371v-118h-371zM485 1112l-172 -590h351l-170 590h-9zM401 1290h187l385 -1290h-158l-115 393h-424l-112 -393h-148z" />
    <glyph glyph-name="amacron" unicode="&#x101;" horiz-adv-x="780" 
d="M190 1032v119h371v-119h-371zM664 610v-442q0 -61 49 -62q29 0 55 13v-99q-41 -30 -99 -30t-100 38q-41 38 -49 103q-31 -63 -94 -104q-62 -41 -160 -41t-162 60q-63 60 -63 162t59 160t172 109l248 109v24q0 182 -149 183q-160 0 -160 -179v-24h-137v26q0 135 79 215
t220 80q291 0 291 -301zM520 362v115l-196 -94q-72 -33 -105 -70t-33 -94q0 -117 127 -117q95 0 151 70t56 190z" />
    <glyph glyph-name="Abreve" unicode="&#x102;" horiz-adv-x="989" 
d="M495 1358q-194 0 -194 256h105q0 -76 19 -113t69 -37t69 37q18 37 19 113h106q1 -256 -193 -256zM485 1112l-172 -590h351l-170 590h-9zM401 1290h187l385 -1290h-158l-115 393h-424l-112 -393h-148z" />
    <glyph glyph-name="abreve" unicode="&#x103;" horiz-adv-x="780" 
d="M376 997q-194 0 -194 258h105q0 -77 19 -113q20 -36 70 -36t68 37t19 112h106q1 -258 -193 -258zM664 610v-442q0 -61 49 -62q29 0 55 13v-99q-41 -30 -99 -30t-100 38q-41 38 -49 103q-31 -63 -94 -104q-62 -41 -160 -41t-162 60q-63 60 -63 162t59 160t172 109l248 109
v24q0 182 -149 183q-160 0 -160 -179v-24h-137v26q0 135 79 215t220 80q291 0 291 -301zM520 362v115l-196 -94q-72 -33 -105 -70t-33 -94q0 -117 127 -117q95 0 151 70t56 190z" />
    <glyph glyph-name="Aogonek" unicode="&#x104;" horiz-adv-x="989" 
d="M485 1112l-172 -590h353l-172 590h-9zM823 -176q0 -72 64 -72q29 0 53 8v-90q-39 -20 -94 -20t-93 39t-38 104q0 102 100 207l-113 393h-423l-115 -393h-148l385 1290h187l385 -1290h-60q-90 -104 -90 -176z" />
    <glyph glyph-name="aogonek" unicode="&#x105;" horiz-adv-x="780" 
d="M520 362v115l-196 -94q-72 -33 -105 -70t-33 -94q0 -117 127 -117q95 0 151 70t56 190zM664 610v-442q0 -61 49 -62q29 0 55 13v-99q-113 -120 -113 -194t62 -74q29 0 53 8v-90q-35 -20 -91 -20t-95 39t-39 104q0 98 96 199q-109 18 -121 139q-31 -63 -94 -104
q-62 -41 -160 -41t-162 60q-63 60 -63 162t59 160t172 109l248 109v24q0 182 -149 183q-160 0 -160 -179v-24h-137v26q0 135 79 215t220 80q291 0 291 -301z" />
    <glyph glyph-name="Cacute" unicode="&#x106;" horiz-adv-x="944" 
d="M541 1364h-90l75 256h179zM59 604v82q0 307 112 466q111 159 315 159q204 -1 304 -143t99 -384v-28h-148v26q0 399 -252 400q-272 0 -272 -482v-110q0 -481 272 -481q252 0 252 399v27h148v-29q0 -242 -99 -384q-100 -142 -304 -142t-316 158t-111 466z" />
    <glyph glyph-name="cacute" unicode="&#x107;" horiz-adv-x="757" 
d="M49 424v45q0 209 93 326t250 117t237 -104q80 -103 80 -269v-17h-140v17q0 252 -176 252q-195 0 -194 -320v-49q0 -319 194 -320q176 0 176 252v19h140v-21q0 -166 -80 -268t-237 -102t-250 116t-93 326zM446 1006h-90l76 254h178z" />
    <glyph glyph-name="Ccircumflex" unicode="&#x108;" horiz-adv-x="944" 
d="M414 1614h172l133 -256h-109l-110 158l-113 -158h-108zM59 604v82q0 307 112 466q111 159 315 159q204 -1 304 -143t99 -384v-28h-148v26q0 399 -252 400q-272 0 -272 -482v-110q0 -481 272 -481q252 0 252 399v27h148v-29q0 -242 -99 -384q-100 -142 -304 -142t-316 158
t-111 466z" />
    <glyph glyph-name="ccircumflex" unicode="&#x109;" horiz-adv-x="757" 
d="M49 424v45q0 209 93 326t250 117t237 -104q80 -103 80 -269v-17h-140v17q0 252 -176 252q-195 0 -194 -320v-49q0 -319 194 -320q176 0 176 252v19h140v-21q0 -166 -80 -268t-237 -102t-250 116t-93 326zM326 1245h163l134 -256h-105l-110 158l-113 -158h-105z" />
    <glyph glyph-name="Cdotaccent" unicode="&#x10a;" horiz-adv-x="944" 
d="M59 604v82q0 307 112 466q111 159 315 159q204 -1 304 -143t99 -384v-28h-148v26q0 399 -252 400q-272 0 -272 -482v-110q0 -481 272 -481q252 0 252 399v27h148v-29q0 -242 -99 -384q-100 -142 -304 -142t-316 158t-111 466zM420 1409v172h155v-172h-155z" />
    <glyph glyph-name="cdotaccent" unicode="&#x10b;" horiz-adv-x="757" 
d="M319 1051v172h156v-172h-156zM49 424v45q0 209 93 326t250 117t237 -104q80 -103 80 -269v-17h-140v17q0 252 -176 252q-195 0 -194 -320v-49q0 -319 194 -320q176 0 176 252v19h140v-21q0 -166 -80 -268t-237 -102t-250 116t-93 326z" />
    <glyph glyph-name="Ccaron" unicode="&#x10c;" horiz-adv-x="944" 
d="M586 1364h-172l-135 256h108l113 -158l110 158h109zM59 604v82q0 307 112 466q111 159 315 159q204 -1 304 -143t99 -384v-28h-148v26q0 399 -252 400q-272 0 -272 -482v-110q0 -481 272 -481q252 0 252 399v27h148v-29q0 -242 -99 -384q-100 -142 -304 -142t-316 158
t-111 466z" />
    <glyph glyph-name="ccaron" unicode="&#x10d;" horiz-adv-x="757" 
d="M49 424v45q0 209 93 326t250 117t237 -104q80 -103 80 -269v-17h-140v17q0 252 -176 252q-195 0 -194 -320v-49q0 -319 194 -320q176 0 176 252v19h140v-21q0 -166 -80 -268t-237 -102t-250 116t-93 326zM481 1006h-164l-135 254h105l112 -156l111 156h104z" />
    <glyph glyph-name="Dcaron" unicode="&#x10e;" horiz-adv-x="966" 
d="M109 0v1290h309q248 0 370 -145t121 -459v-82q0 -312 -122 -458t-369 -146h-309zM264 127h139q182 0 266 101q83 101 83 360v114q0 258 -83 360t-266 101h-139v-1036zM524 1364h-172l-135 256h109l112 -158l111 158h108z" />
    <glyph glyph-name="dcaron" unicode="&#x10f;" horiz-adv-x="851" 
d="M604 0v135q-29 -65 -88 -109t-149 -44q-145 0 -232 112q-86 113 -86 330v45q0 217 86 330t232 112q90 0 149 -44t88 -109v532h150v-1290h-150zM199 467v-39q0 -158 52 -242t148 -84t151 71q54 71 54 189v168q0 119 -54 190t-150 71t-149 -83q-52 -83 -52 -241zM899 1024
h-82l33 266h174z" />
    <glyph glyph-name="Dcroat" unicode="&#x110;" horiz-adv-x="966" 
d="M268 127h140q182 0 264 101t82 360v114q0 258 -82 360t-264 101h-140v-434h172v-125h-172v-477zM29 604v125h82v561h309q248 0 370 -145t121 -459v-82q0 -313 -121 -459q-122 -145 -370 -145h-309v604h-82z" />
    <glyph glyph-name="dcroat" unicode="&#x111;" horiz-adv-x="854" 
d="M199 467v-39q0 -158 52 -242t148 -84t151 71q54 71 54 189v168q0 119 -54 190t-150 71t-149 -83q-52 -83 -52 -241zM424 1022v98h180v170h150v-170h82v-98h-82v-1022h-150v135q-29 -65 -88 -109t-149 -44q-145 0 -232 112q-86 113 -86 330v45q0 217 86 330t232 112
q90 0 149 -44t88 -109v264h-180z" />
    <glyph glyph-name="Emacron" unicode="&#x112;" horiz-adv-x="825" 
d="M782 131v-131h-673v1290h663v-131h-512v-428h410v-129h-410v-471h522zM264 1391v118h371v-118h-371z" />
    <glyph glyph-name="emacron" unicode="&#x113;" horiz-adv-x="774" 
d="M213 1032v119h371v-119h-371zM197 516h385q-2 274 -189 275q-190 -1 -196 -275zM392 -18q-157 0 -250 116t-93 326v45q0 209 94 326t253 117t244 -116q85 -114 85 -327v-53h-530q0 -313 202 -314q178 0 187 222h135q-4 -158 -87 -250t-240 -92z" />
    <glyph glyph-name="Ebreve" unicode="&#x114;" horiz-adv-x="825" 
d="M782 131v-131h-673v1290h663v-131h-512v-428h410v-129h-410v-471h522zM450 1358q-194 0 -194 256h104q0 -76 20 -113t70 -37t68 37t19 113h106q1 -256 -193 -256z" />
    <glyph glyph-name="ebreve" unicode="&#x115;" horiz-adv-x="774" 
d="M592 1255q0 -258 -194 -258t-193 258h104q-1 -77 19 -113t70 -36t69 37q18 37 18 112h107zM197 516h385q-2 274 -189 275q-190 -1 -196 -275zM392 -18q-157 0 -250 116t-93 326v45q0 209 94 326t253 117t244 -116q85 -114 85 -327v-53h-530q0 -313 202 -314
q178 0 187 222h135q-4 -158 -87 -250t-240 -92z" />
    <glyph glyph-name="Edotaccent" unicode="&#x116;" horiz-adv-x="825" 
d="M782 131v-131h-673v1290h663v-131h-512v-428h410v-129h-410v-471h522zM371 1409v172h155v-172h-155z" />
    <glyph glyph-name="edotaccent" unicode="&#x117;" horiz-adv-x="774" 
d="M317 1051v172h156v-172h-156zM197 516h385q-2 274 -189 275q-190 -1 -196 -275zM392 -18q-157 0 -250 116t-93 326v45q0 209 94 326t253 117t244 -116q85 -114 85 -327v-53h-530q0 -313 202 -314q178 0 187 222h135q-4 -158 -87 -250t-240 -92z" />
    <glyph glyph-name="Eogonek" unicode="&#x118;" horiz-adv-x="825" 
d="M782 131v-131h-71q-93 -102 -93 -175t64 -73q29 0 53 8v-90q-39 -20 -94 -20t-93 39t-38 104q0 102 100 207h-501v1290h663v-131h-512v-428h410v-129h-410v-471h522z" />
    <glyph glyph-name="eogonek" unicode="&#x119;" horiz-adv-x="774" 
d="M197 516h385q-2 274 -189 275q-190 -1 -196 -275zM397 -18q-160 0 -254 116t-94 326v45q0 209 94 326t253 117t244 -116q85 -114 85 -327v-53h-530q0 -313 202 -314q178 0 187 222h135q-6 -170 -105 -269q-127 -129 -127 -233q0 -70 64 -70q29 0 53 8v-90
q-39 -20 -94 -20t-93 39t-38 104q0 101 90 197q-45 -8 -72 -8z" />
    <glyph glyph-name="Ecaron" unicode="&#x11a;" horiz-adv-x="825" 
d="M782 131v-131h-673v1290h663v-131h-512v-428h410v-129h-410v-471h522zM537 1364h-172l-136 256h109l113 -158l110 158h109z" />
    <glyph glyph-name="ecaron" unicode="&#x11b;" horiz-adv-x="774" 
d="M197 516h385q-2 274 -189 275q-190 -1 -196 -275zM392 -18q-157 0 -250 116t-93 326v45q0 209 94 326t253 117t244 -116q85 -114 85 -327v-53h-530q0 -313 202 -314q178 0 187 222h135q-4 -158 -87 -250t-240 -92zM477 1006h-164l-135 254h105l112 -156l111 156h104z" />
    <glyph glyph-name="Gcircumflex" unicode="&#x11c;" horiz-adv-x="995" 
d="M414 1614h172l133 -256h-109l-110 158l-113 -158h-108zM492 -20q-210 0 -322 160t-111 464v82q0 307 113 466t317 159q204 1 304 -139t100 -379v-19h-150v17q0 391 -249 391q-276 0 -277 -482v-110q0 -230 69 -356t204 -126q136 0 202 98q66 97 66 271v33h-228v125h373
v-635h-121l-18 166q-62 -186 -272 -186z" />
    <glyph glyph-name="gcircumflex" unicode="&#x11d;" horiz-adv-x="768" 
d="M313 1245h164l133 -256h-104l-111 158l-112 -158h-105zM211 610v-16q0 -84 43 -138t121 -54t121 54t43 138v16q0 86 -43 140t-121 55q-78 -1 -121 -55t-43 -140zM324 49q-90 -1 -138 -39t-47 -110t63 -114t176 -42t188 45t75 131q0 129 -164 129h-153zM682 614v-22
q0 -131 -87 -215t-220 -84q-84 0 -146 31q-43 -31 -43 -74q0 -68 80 -68h226q136 0 210 -62t74 -179q0 -150 -114 -227q-114 -76 -286 -76q-171 0 -273 64q-101 65 -101 181q0 70 42 119t114 70q-94 33 -94 132t106 156q-102 86 -102 232v22q0 131 86 214t216 83t218 -75
q31 51 84 82t110 30v-137q-80 0 -145 -35q45 -72 45 -162z" />
    <glyph glyph-name="Gbreve" unicode="&#x11e;" horiz-adv-x="995" 
d="M492 -20q-210 0 -322 160t-111 464v82q0 307 113 466t317 159q204 1 304 -139t100 -379v-19h-150v17q0 391 -249 391q-276 0 -277 -482v-110q0 -230 69 -356t204 -126q136 0 202 98q66 97 66 271v33h-228v125h373v-635h-121l-18 166q-62 -186 -272 -186zM499 1358
q-194 0 -194 256h105q0 -76 19 -113t69 -37t69 37q18 37 19 113h106q1 -256 -193 -256z" />
    <glyph glyph-name="gbreve" unicode="&#x11f;" horiz-adv-x="768" 
d="M588 1255q0 -258 -194 -258t-193 258h104q-1 -77 19 -113t70 -36t69 37q18 37 18 112h107zM211 610v-16q0 -84 43 -138t121 -54t121 54t43 138v16q0 86 -43 140t-121 55q-78 -1 -121 -55t-43 -140zM324 49q-90 -1 -138 -39t-47 -110t63 -114t176 -42t188 45t75 131
q0 129 -164 129h-153zM682 614v-22q0 -131 -87 -215t-220 -84q-84 0 -146 31q-43 -31 -43 -74q0 -68 80 -68h226q136 0 210 -62t74 -179q0 -150 -114 -227q-114 -76 -286 -76q-171 0 -273 64q-101 65 -101 181q0 70 42 119t114 70q-94 33 -94 132t106 156q-102 86 -102 232
v22q0 131 86 214t216 83t218 -75q31 51 84 82t110 30v-137q-80 0 -145 -35q45 -72 45 -162z" />
    <glyph glyph-name="Gdotaccent" unicode="&#x120;" horiz-adv-x="995" 
d="M492 -20q-210 0 -322 160t-111 464v82q0 307 113 466t317 159q204 1 304 -139t100 -379v-19h-150v17q0 391 -249 391q-276 0 -277 -482v-110q0 -230 69 -356t204 -126q136 0 202 98q66 97 66 271v33h-228v125h373v-635h-121l-18 166q-62 -186 -272 -186zM420 1409v172
h155v-172h-155z" />
    <glyph glyph-name="gdotaccent" unicode="&#x121;" horiz-adv-x="768" 
d="M315 1051v172h156v-172h-156zM211 610v-16q0 -84 43 -138t121 -54t121 54t43 138v16q0 86 -43 140t-121 55q-78 -1 -121 -55t-43 -140zM324 49q-90 -1 -138 -39t-47 -110t63 -114t176 -42t188 45t75 131q0 129 -164 129h-153zM682 614v-22q0 -131 -87 -215t-220 -84
q-84 0 -146 31q-43 -31 -43 -74q0 -68 80 -68h226q136 0 210 -62t74 -179q0 -150 -114 -227q-114 -76 -286 -76q-171 0 -273 64q-101 65 -101 181q0 70 42 119t114 70q-94 33 -94 132t106 156q-102 86 -102 232v22q0 131 86 214t216 83t218 -75q31 51 84 82t110 30v-137
q-80 0 -145 -35q45 -72 45 -162z" />
    <glyph glyph-name="Gcommaaccent" unicode="&#x122;" horiz-adv-x="995" 
d="M492 -20q-210 0 -322 160t-111 464v82q0 307 113 466t317 159q204 1 304 -139t100 -379v-19h-150v17q0 391 -249 391q-276 0 -277 -482v-110q0 -230 69 -356t204 -126q136 0 202 98q66 97 66 271v33h-228v125h373v-635h-121l-18 166q-62 -186 -272 -186zM424 -207v123
h154v-96q0 -166 -162 -166v65q70 0 71 74h-63z" />
    <glyph glyph-name="gcommaaccent" unicode="&#x123;" horiz-adv-x="768" 
d="M473 1147v-121h-156v94q0 166 164 166v-65q-39 1 -54 -17t-17 -57h63zM211 610v-16q0 -84 43 -138t121 -54t121 54t43 138v16q0 86 -43 140t-121 55q-78 -1 -121 -55t-43 -140zM324 49q-90 -1 -138 -39t-47 -110t63 -114t176 -42t188 45t75 131q0 129 -164 129h-153z
M682 614v-22q0 -131 -87 -215t-220 -84q-84 0 -146 31q-43 -31 -43 -74q0 -68 80 -68h226q136 0 210 -62t74 -179q0 -150 -114 -227q-114 -76 -286 -76q-171 0 -273 64q-101 65 -101 181q0 70 42 119t114 70q-94 33 -94 132t106 156q-102 86 -102 232v22q0 131 86 214
t216 83t218 -75q31 51 84 82t110 30v-137q-80 0 -145 -35q45 -72 45 -162z" />
    <glyph glyph-name="Hcircumflex" unicode="&#x124;" horiz-adv-x="1050" 
d="M442 1614h172l134 -256h-109l-111 158l-112 -158h-109zM264 0h-155v1290h155v-559h522v559h158v-1290h-158v602h-522v-602z" />
    <glyph glyph-name="hcircumflex" unicode="&#x125;" horiz-adv-x="843" 
d="M338 1614h172l133 -256h-108l-111 158l-113 -158h-108zM248 1290v-522q27 61 89 102t148 41q129 1 199 -77t70 -211v-623h-150v588q0 201 -166 200q-86 0 -138 -64t-52 -175v-549h-150v1290h150z" />
    <glyph glyph-name="Hbar" unicode="&#x126;" horiz-adv-x="1056" 
d="M268 709h523v215h-523v-215zM29 924v118h82v248h157v-248h523v248h155v-248h82v-118h-82v-924h-155v584h-523v-584h-157v924h-82z" />
    <glyph glyph-name="hbar" unicode="&#x127;" horiz-adv-x="847" 
d="M20 1022v98h82v170h150v-170h180v-98h-180v-254q27 61 89 102t148 41q129 1 199 -77t70 -211v-623h-152v588q0 201 -166 200q-86 0 -137 -64t-51 -175v-549h-150v1022h-82z" />
    <glyph glyph-name="Itilde" unicode="&#x128;" horiz-adv-x="372" 
d="M-43 1372q0 229 133 230q48 0 104 -54t80 -55q49 0 52 104h92q0 -227 -133 -227q-49 0 -105 54t-80 55q-49 -1 -51 -107h-92zM109 1290h155v-1290h-155v1290z" />
    <glyph glyph-name="itilde" unicode="&#x129;" horiz-adv-x="346" 
d="M98 893h150v-893h-150v893zM-37 1014q0 225 135 225q37 0 63 -28q26 -29 45 -55t40 -26q49 0 51 105h88q0 -225 -135 -225q-49 0 -87 54t-61 54q-49 0 -51 -104h-88z" />
    <glyph glyph-name="Imacron" unicode="&#x12a;" horiz-adv-x="372" 
d="M2 1391v118h371v-118h-371zM109 1290h155v-1290h-155v1290z" />
    <glyph glyph-name="imacron" unicode="&#x12b;" horiz-adv-x="346" 
d="M14 1032v119h316v-119h-316zM98 893h150v-893h-150v893z" />
    <glyph glyph-name="Ibreve" unicode="&#x12c;" horiz-adv-x="372" 
d="M381 1614q0 -256 -194 -256t-193 256h104q0 -76 20 -113t69 -37q50 0 69 37q18 37 18 113h107zM109 1290h155v-1290h-155v1290z" />
    <glyph glyph-name="ibreve" unicode="&#x12d;" horiz-adv-x="346" 
d="M98 893h150v-893h-150v893zM174 997q-176 0 -176 258h102q0 -77 16 -113t58 -36q43 0 57 36t15 113h102q0 -133 -42 -195t-132 -63z" />
    <glyph glyph-name="Iogonek" unicode="&#x12e;" horiz-adv-x="372" 
d="M109 1290h155v-1290q-104 -96 -104 -172t55 -76q25 0 49 8v-90q-39 -20 -89 -20t-87 39t-37 104q0 104 103 207h-45v1290z" />
    <glyph glyph-name="iogonek" unicode="&#x12f;" horiz-adv-x="346" 
d="M98 0v893h150v-893q-104 -96 -104 -172t55 -76q25 0 49 8v-90q-35 -20 -87 -20t-89 39t-37 104q0 105 102 207h-39zM94 1051v172h158v-172h-158z" />
    <glyph glyph-name="Idotaccent" unicode="&#x130;" horiz-adv-x="372" 
d="M109 1409v172h155v-172h-155zM109 1290h155v-1290h-155v1290z" />
    <glyph glyph-name="dotlessi" unicode="&#x131;" horiz-adv-x="346" 
d="M98 893h150v-893h-150v893z" />
    <glyph glyph-name="IJ" unicode="&#x132;" horiz-adv-x="1146" 
d="M899 1290h158v-917q0 -181 -91 -287t-255 -106t-256 105t-93 282v118h150v-116q0 -129 51 -196t146 -67q190 0 190 265v919zM109 1290h155v-1290h-155v1290z" />
    <glyph glyph-name="ij" unicode="&#x133;" horiz-adv-x="671" 
d="M420 1051v172h158v-172h-158zM573 893v-1034q0 -223 -200 -224q-80 0 -131 35l20 107q45 -23 90 -23t59 23q13 23 13 71v1045h149zM94 1051v172h158v-172h-158zM98 893h150v-893h-150v893z" />
    <glyph glyph-name="Jcircumflex" unicode="&#x134;" horiz-adv-x="817" 
d="M559 1614h172l133 -256h-108l-111 158l-113 -158h-108zM567 1290h158v-917q0 -181 -91 -287t-255 -106t-256 105t-92 282v118h149v-116q0 -129 51 -196t146 -67q190 0 190 265v919z" />
    <glyph glyph-name="jcircumflex" unicode="&#x135;" horiz-adv-x="346" 
d="M248 893v-1034q0 -223 -201 -224q-80 0 -131 35l21 107q45 -23 90 -23t58 23t13 71v1045h150zM92 1255h166l113 -256h-107l-90 158l-90 -158h-107z" />
    <glyph glyph-name="Kcommaaccent" unicode="&#x136;" horiz-adv-x="923" 
d="M264 0h-155v1290h155v-686l469 686h166l-403 -583l428 -707h-174l-363 586l-123 -172v-414zM401 -207v123h154v-96q0 -166 -162 -166v65q70 0 72 74h-64z" />
    <glyph glyph-name="kcommaaccent" unicode="&#x137;" horiz-adv-x="778" 
d="M248 0h-150v1290h150v-829l346 432h164l-324 -393l336 -500h-168l-270 395l-84 -102v-293zM330 -207v123h153v-96q0 -166 -161 -166v65q70 0 71 74h-63z" />
    <glyph glyph-name="kgreenlandic" unicode="&#x138;" horiz-adv-x="778" 
d="M248 0h-150v893h150v-432l346 432h164l-324 -393l336 -500h-168l-270 395l-84 -102v-293z" />
    <glyph glyph-name="Lacute" unicode="&#x139;" horiz-adv-x="813" 
d="M109 1290h155v-1159h518v-131h-673v1290zM231 1364h-90l76 256h178z" />
    <glyph glyph-name="lacute" unicode="&#x13a;" horiz-adv-x="346" 
d="M98 1290h150v-1290h-150v1290zM217 1364h-90l76 256h178z" />
    <glyph glyph-name="Lcommaaccent" unicode="&#x13b;" horiz-adv-x="813" 
d="M109 1290h155v-1159h518v-131h-673v1290zM371 -207v123h153v-96q0 -166 -162 -166v65q70 0 72 74h-63z" />
    <glyph glyph-name="lcommaaccent" unicode="&#x13c;" horiz-adv-x="346" 
d="M98 1290h150v-1290h-150v1290zM100 -207v123h154v-96q0 -166 -162 -166v65q70 0 72 74h-64z" />
    <glyph glyph-name="Lcaron" unicode="&#x13d;" horiz-adv-x="813" 
d="M109 1290h155v-1159h518v-131h-673v1290zM551 1024h-82l33 266h174z" />
    <glyph glyph-name="lcaron" unicode="&#x13e;" horiz-adv-x="346" 
d="M98 1290h150v-1290h-150v1290zM393 1024h-82l33 266h174z" />
    <glyph glyph-name="Ldot" unicode="&#x13f;" horiz-adv-x="813" 
d="M547 496v172h153v-172h-153zM109 1290h155v-1159h518v-131h-673v1290z" />
    <glyph glyph-name="ldot" unicode="&#x140;" horiz-adv-x="499" 
d="M348 496v172h154v-172h-154zM98 1290h150v-1290h-150v1290z" />
    <glyph glyph-name="Lslash" unicode="&#x141;" horiz-adv-x="817" 
d="M111 1290h157v-612l240 115v-131l-240 -117v-412l516 -2v-131h-673v477l-82 -37v131l82 37v682z" />
    <glyph glyph-name="lslash" unicode="&#x142;" horiz-adv-x="395" 
d="M123 1290h149v-528l111 63v-120l-111 -64v-641h-149v569l-109 -61v121l109 61v600z" />
    <glyph glyph-name="Nacute" unicode="&#x143;" horiz-adv-x="1007" 
d="M756 313v977h145v-1290h-133l-506 1008h-8v-1008h-145v1290h151l488 -977h8zM553 1364h-90l76 256h178z" />
    <glyph glyph-name="nacute" unicode="&#x144;" horiz-adv-x="843" 
d="M248 549v-549h-150v893h150v-125q27 61 89 102t148 41q129 1 199 -77t70 -211v-623h-150v588q0 201 -166 200q-86 0 -138 -64t-52 -175zM477 1006h-90l76 254h178z" />
    <glyph glyph-name="Ncommaaccent" unicode="&#x145;" horiz-adv-x="1007" 
d="M756 313v977h145v-1290h-133l-506 1008h-8v-1008h-145v1290h151l488 -977h8zM436 -207v123h154v-96q0 -166 -162 -166v65q70 0 72 74h-64z" />
    <glyph glyph-name="ncommaaccent" unicode="&#x146;" horiz-adv-x="843" 
d="M248 549v-549h-150v893h150v-125q27 61 89 102t148 41q129 1 199 -77t70 -211v-623h-150v588q0 201 -166 200q-86 0 -138 -64t-52 -175zM365 -207v123h153v-96q0 -166 -162 -166v65q70 0 72 74h-63z" />
    <glyph glyph-name="Ncaron" unicode="&#x147;" horiz-adv-x="1007" 
d="M756 313v977h145v-1290h-133l-506 1008h-8v-1008h-145v1290h151l488 -977h8zM598 1364h-172l-135 256h108l113 -158l111 158h108z" />
    <glyph glyph-name="ncaron" unicode="&#x148;" horiz-adv-x="843" 
d="M248 549v-549h-150v893h150v-125q27 61 89 102t148 41q129 1 199 -77t70 -211v-623h-150v588q0 201 -166 200q-86 0 -138 -64t-52 -175zM522 1006h-164l-135 254h105l112 -156l111 156h104z" />
    <glyph glyph-name="Eng" unicode="&#x14a;" horiz-adv-x="1007" 
d="M254 1008v-1008h-145v1290h151l488 -977h8v977h145v-1300q0 -162 -76 -247t-204 -85q-178 0 -265 164l82 82q68 -121 178 -121q78 0 112 51t34 180l-500 994h-8z" />
    <glyph glyph-name="eng" unicode="&#x14b;" horiz-adv-x="843" 
d="M248 549v-549h-150v893h150v-125q27 61 89 102t148 41q129 1 199 -77t70 -211v-764q0 -223 -201 -224q-80 0 -131 35l20 107q40 -23 88 -23t61 23t13 71v740q0 201 -166 200q-86 0 -138 -64t-52 -175z" />
    <glyph glyph-name="Omacron" unicode="&#x14c;" horiz-adv-x="983" 
d="M766 598v94q0 489 -274 490q-274 0 -275 -490v-94q1 -489 275 -489t274 489zM924 678v-66q0 -309 -112 -471q-112 -161 -320 -161t-321 162q-112 162 -112 470v66q0 309 112 471t321 162q208 0 320 -162t112 -471zM307 1391v118h371v-118h-371z" />
    <glyph glyph-name="omacron" unicode="&#x14d;" horiz-adv-x="796" 
d="M397 -18q-160 0 -254 116t-94 326v45q0 209 94 326t254 117t255 -118q95 -116 96 -325v-45q0 -210 -96 -326t-255 -116zM397 100q199 0 199 322v49q0 322 -199 322t-198 -322v-49q-1 -322 198 -322zM213 1032v119h371v-119h-371z" />
    <glyph glyph-name="Obreve" unicode="&#x14e;" horiz-adv-x="983" 
d="M766 598v94q0 489 -274 490q-274 0 -275 -490v-94q1 -489 275 -489t274 489zM924 678v-66q0 -309 -112 -471q-112 -161 -320 -161t-321 162q-112 162 -112 470v66q0 309 112 471t321 162q208 0 320 -162t112 -471zM493 1358q-194 0 -194 256h104q-1 -76 19 -113t70 -37
t69 37q18 37 19 113h106q1 -256 -193 -256z" />
    <glyph glyph-name="obreve" unicode="&#x14f;" horiz-adv-x="796" 
d="M592 1255q0 -258 -194 -258t-193 258h104q-1 -77 19 -113t70 -36t69 37q18 37 18 112h107zM397 -18q-160 0 -254 116t-94 326v45q0 209 94 326t254 117t255 -118q95 -116 96 -325v-45q0 -210 -96 -326t-255 -116zM397 100q199 0 199 322v49q0 322 -199 322t-198 -322v-49
q-1 -322 198 -322z" />
    <glyph glyph-name="Ohungarumlaut" unicode="&#x150;" horiz-adv-x="983" 
d="M623 1364h-78l71 256h170zM416 1364h-82l76 256h168zM766 598v94q0 489 -274 490q-274 0 -275 -490v-94q1 -489 275 -489t274 489zM924 678v-66q0 -309 -112 -471q-112 -161 -320 -161t-321 162q-112 162 -112 470v66q0 309 112 471t321 162q208 0 320 -162t112 -471z
" />
    <glyph glyph-name="ohungarumlaut" unicode="&#x151;" horiz-adv-x="796" 
d="M397 -18q-160 0 -254 116t-94 326v45q0 209 94 326t254 117t255 -118q95 -116 96 -325v-45q0 -210 -96 -326t-255 -116zM397 100q199 0 199 322v49q0 322 -199 322t-198 -322v-49q-1 -322 198 -322zM530 1006h-77l71 254h170zM324 1006h-82l75 254h168z" />
    <glyph glyph-name="OE" unicode="&#x152;" horiz-adv-x="1343" 
d="M649 127v1036h-53q-186 0 -282 -103t-97 -358v-114q0 -254 96 -358t283 -103h53zM1300 0h-718q-522 0 -523 604v82q0 604 523 604h708v-131h-487v-428h385v-129h-385v-471h497v-131z" />
    <glyph glyph-name="oe" unicode="&#x153;" horiz-adv-x="1314" 
d="M737 516h385q-2 274 -188 275q-191 -1 -197 -275zM397 100q199 0 199 322v49q0 322 -199 322t-198 -322v-49q-1 -322 198 -322zM49 469q0 209 94 325t263 117q169 0 264 -147q94 147 260 147q166 -1 251 -115t85 -327v-53h-531q0 -313 203 -314q178 0 186 222h136
q-4 -158 -88 -250t-236 -92q-180 0 -270 155q-96 -155 -262 -155t-261 116q-94 116 -94 326v45z" />
    <glyph glyph-name="Racute" unicode="&#x154;" horiz-adv-x="933" 
d="M500 1364h-90l75 256h179zM262 670h201q137 0 195 59t58 182t-58 187q-60 64 -195 63h-201v-491zM262 543v-543h-153v1290h362q201 0 302 -99t101 -249t-62 -235q-62 -84 -165 -105q96 -28 137 -98q40 -70 50 -244t61 -260h-164q-39 82 -51 259t-55 230t-164 54h-199z
" />
    <glyph glyph-name="racute" unicode="&#x155;" horiz-adv-x="542" 
d="M440 772q-193 0 -192 -252v-520h-150v893h150v-145q49 160 211 159q49 0 76 -12l-9 -135q-39 12 -86 12zM356 1006h-90l76 254h178z" />
    <glyph glyph-name="Rcommaaccent" unicode="&#x156;" horiz-adv-x="933" 
d="M262 670h201q137 0 195 59t58 182t-58 187q-60 64 -195 63h-201v-491zM262 543v-543h-153v1290h362q201 0 302 -99t101 -249t-62 -235q-62 -84 -165 -105q96 -28 137 -98q40 -70 50 -244t61 -260h-164q-39 82 -51 259t-55 230t-164 54h-199zM403 -207v123h154v-96
q0 -166 -162 -166v65q70 0 72 74h-64z" />
    <glyph glyph-name="rcommaaccent" unicode="&#x157;" horiz-adv-x="542" 
d="M440 772q-193 0 -192 -252v-520h-150v893h150v-145q49 160 211 159q49 0 76 -12l-9 -135q-39 12 -86 12zM100 -207v123h154v-96q0 -166 -162 -166v65q70 0 72 74h-64z" />
    <glyph glyph-name="Rcaron" unicode="&#x158;" horiz-adv-x="933" 
d="M262 670h201q137 0 195 59t58 182t-58 187q-60 64 -195 63h-201v-491zM262 543v-543h-153v1290h362q201 0 302 -99t101 -249t-62 -235q-62 -84 -165 -105q96 -28 137 -98q40 -70 50 -244t61 -260h-164q-39 82 -51 259t-55 230t-164 54h-199zM545 1364h-172l-135 256h108
l113 -158l110 158h109z" />
    <glyph glyph-name="rcaron" unicode="&#x159;" horiz-adv-x="542" 
d="M440 772q-193 0 -192 -252v-520h-150v893h150v-145q49 160 211 159q49 0 76 -12l-9 -135q-39 12 -86 12zM401 1006h-163l-136 254h105l112 -156l111 156h105z" />
    <glyph glyph-name="Sacute" unicode="&#x15a;" horiz-adv-x="854" 
d="M469 1364h-90l76 256h178zM53 976q-1 144 97 240q98 94 274 94t273 -110q97 -111 98 -282v-56h-142v53q0 123 -61 198q-62 75 -170 75t-164 -58t-55 -148q0 -89 40 -137t122 -83l170 -70q141 -59 209 -143q68 -85 69 -231q0 -146 -99 -242t-283 -96t-288 110t-104 316v38
h141v-36q0 -150 69 -228t183 -78t172 58t58 152q0 96 -46 149t-145 92l-158 61q-127 50 -193 134t-67 228z" />
    <glyph glyph-name="sacute" unicode="&#x15b;" horiz-adv-x="712" 
d="M362 94q82 0 124 36q40 36 40 94t-30 85q-31 27 -109 53l-111 37q-106 37 -160 95t-54 166q0 110 76 181q78 71 218 71t218 -86q78 -85 77 -228h-129q-4 201 -180 201q-66 0 -106 -36t-39 -95q-1 -59 31 -87t104 -55l104 -34q117 -40 171 -96q55 -56 55 -166t-78 -179
t-220 -69t-233 81q-90 82 -92 234h131q2 -99 56 -151t136 -52zM393 1006h-90l76 254h178z" />
    <glyph glyph-name="Scircumflex" unicode="&#x15c;" horiz-adv-x="854" 
d="M342 1614h172l133 -256h-108l-111 158l-113 -158h-108zM53 976q-1 144 97 240q98 94 274 94t273 -110q97 -111 98 -282v-56h-142v53q0 123 -61 198q-62 75 -170 75t-164 -58t-55 -148q0 -89 40 -137t122 -83l170 -70q141 -59 209 -143q68 -85 69 -231q0 -146 -99 -242
t-283 -96t-288 110t-104 316v38h141v-36q0 -150 69 -228t183 -78t172 58t58 152q0 96 -46 149t-145 92l-158 61q-127 50 -193 134t-67 228z" />
    <glyph glyph-name="scircumflex" unicode="&#x15d;" horiz-adv-x="712" 
d="M362 94q82 0 124 36q40 36 40 94t-30 85q-31 27 -109 53l-111 37q-106 37 -160 95t-54 166q0 110 76 181q78 71 218 71t218 -86q78 -85 77 -228h-129q-4 201 -180 201q-66 0 -106 -36t-39 -95q-1 -59 31 -87t104 -55l104 -34q117 -40 171 -96q55 -56 55 -166t-78 -179
t-220 -69t-233 81q-90 82 -92 234h131q2 -99 56 -151t136 -52zM272 1245h164l133 -256h-104l-111 158l-112 -158h-105z" />
    <glyph glyph-name="Scedilla" unicode="&#x15e;" horiz-adv-x="854" 
d="M602 -212q0 -71 -49 -109t-121 -37q-104 0 -172 67l31 80q59 -59 134 -59t75 55q0 78 -164 65l43 134q-166 16 -253 125t-87 297v38h141v-36q0 -150 69 -228t183 -78t172 58t58 152q0 96 -46 149t-145 92l-158 61q-127 50 -193 134t-67 228t97 240q98 94 274 94t273 -110
q97 -111 98 -282v-56h-142v53q0 123 -61 198q-62 75 -170 75t-164 -58t-55 -148q0 -89 40 -137t122 -83l170 -70q141 -59 209 -143q68 -83 69 -229q0 -146 -97 -242t-265 -98l-15 -54q70 -2 118 -34t48 -104z" />
    <glyph glyph-name="scedilla" unicode="&#x15f;" horiz-adv-x="712" 
d="M528 -212q0 -71 -49 -109t-121 -37q-104 0 -172 67l31 80q59 -59 134 -59t75 55q0 78 -164 65l45 136q-121 16 -193 96t-75 215h131q2 -99 56 -151t136 -52t124 36q40 36 40 94t-30 85q-31 27 -109 53l-111 37q-106 37 -160 95t-54 166q0 110 76 181q78 71 218 71
t218 -86q78 -85 77 -228h-129q-4 201 -180 201q-66 0 -106 -36t-39 -95q-1 -59 31 -87t104 -55l104 -34q117 -40 171 -96q55 -56 55 -164t-75 -179q-75 -70 -208 -71l-17 -56q70 -2 118 -34t48 -104z" />
    <glyph glyph-name="Scaron" unicode="&#x160;" horiz-adv-x="854" 
d="M514 1364h-172l-135 256h108l113 -158l111 158h108zM53 976q-1 144 97 240q98 94 274 94t273 -110q97 -111 98 -282v-56h-142v53q0 123 -61 198q-62 75 -170 75t-164 -58t-55 -148q0 -89 40 -137t122 -83l170 -70q141 -59 209 -143q68 -85 69 -231q0 -146 -99 -242
t-283 -96t-288 110t-104 316v38h141v-36q0 -150 69 -228t183 -78t172 58t58 152q0 96 -46 149t-145 92l-158 61q-127 50 -193 134t-67 228z" />
    <glyph glyph-name="scaron" unicode="&#x161;" horiz-adv-x="712" 
d="M362 94q82 0 124 36q40 36 40 94t-30 85q-31 27 -109 53l-111 37q-106 37 -160 95t-54 166q0 110 76 181q78 71 218 71t218 -86q78 -85 77 -228h-129q-4 201 -180 201q-66 0 -106 -36t-39 -95q-1 -59 31 -87t104 -55l104 -34q117 -40 171 -96q55 -56 55 -166t-78 -179
t-220 -69t-233 81q-90 82 -92 234h131q2 -99 56 -151t136 -52zM436 1006h-164l-135 254h105l112 -156l111 156h104z" />
    <glyph glyph-name="Tcedilla" unicode="&#x162;" horiz-adv-x="915" 
d="M535 0h-158v1159h-344v131h850v-131h-348v-1159zM385 -207v123h154v-96q0 -166 -162 -166v65q70 0 72 74h-64z" />
    <glyph glyph-name="tcedilla" unicode="&#x163;" horiz-adv-x="524" 
d="M119 209v575h-119v82l39 8q57 12 81 44t38 100l28 121h82v-246h211v-109h-211v-559q0 -115 92 -114q59 0 144 51v-115q-88 -59 -187 -59q-198 0 -198 221zM231 -207v123h154v-96q0 -166 -162 -166v65q70 0 72 74h-64z" />
    <glyph glyph-name="Tcaron" unicode="&#x164;" horiz-adv-x="915" 
d="M535 0h-158v1159h-344v131h850v-131h-348v-1159zM547 1364h-172l-135 256h108l113 -158l110 158h109z" />
    <glyph glyph-name="tcaron" unicode="&#x165;" horiz-adv-x="524" 
d="M119 209v575h-119v82l39 8q57 12 81 44t38 100l28 121h82v-246h211v-109h-211v-559q0 -115 92 -114q59 0 144 51v-115q-88 -59 -187 -59q-198 0 -198 221zM420 1024h-82l33 266h174z" />
    <glyph glyph-name="Tbar" unicode="&#x166;" horiz-adv-x="915" 
d="M180 598v125h197v436h-344v131h850v-131h-348v-436h196v-125h-196v-598h-158v598h-197z" />
    <glyph glyph-name="tbar" unicode="&#x167;" horiz-adv-x="555" 
d="M20 477v107h119v200h-119v82l39 8q57 12 81 44t38 100l29 121h82v-246h211v-109h-211v-200h211v-107h-211v-252q0 -115 92 -114q59 0 143 51v-115q-88 -59 -186 -59q-199 0 -199 221v268h-119z" />
    <glyph glyph-name="Utilde" unicode="&#x168;" horiz-adv-x="987" 
d="M895 430q-1 -222 -109 -336t-291 -114t-293 114t-110 336v860h156v-856q0 -324 246 -323q246 0 245 323v856h156v-860zM264 1372q0 229 133 230q49 0 105 -54t80 -55q49 0 51 104h92q0 -227 -133 -227q-48 0 -104 54t-80 55q-50 -1 -52 -107h-92z" />
    <glyph glyph-name="utilde" unicode="&#x169;" horiz-adv-x="843" 
d="M186 1014q0 227 133 227q49 0 105 -54t80 -54q49 0 51 106h92q0 -229 -133 -229q-49 0 -104 54t-80 54q-49 0 -51 -104h-93zM592 356v537h149v-893h-149v125q-27 -63 -88 -103t-148 -40q-130 0 -198 78t-68 210v623h152v-586q0 -203 161 -203q85 0 137 68t52 184z" />
    <glyph glyph-name="Umacron" unicode="&#x16a;" horiz-adv-x="987" 
d="M895 430q-1 -222 -109 -336t-291 -114t-293 114t-110 336v860h156v-856q0 -324 246 -323q246 0 245 323v856h156v-860zM309 1391v118h371v-118h-371z" />
    <glyph glyph-name="umacron" unicode="&#x16b;" horiz-adv-x="843" 
d="M231 1032v119h371v-119h-371zM592 356v537h149v-893h-149v125q-27 -63 -88 -103t-148 -40q-130 0 -198 78t-68 210v623h152v-586q0 -203 161 -203q85 0 137 68t52 184z" />
    <glyph glyph-name="Ubreve" unicode="&#x16c;" horiz-adv-x="987" 
d="M895 430q-1 -222 -109 -336t-291 -114t-293 114t-110 336v860h156v-856q0 -324 246 -323q246 0 245 323v856h156v-860zM495 1358q-194 0 -194 256h105q0 -76 19 -113t69 -37t69 37q18 37 19 113h106q1 -256 -193 -256z" />
    <glyph glyph-name="ubreve" unicode="&#x16d;" horiz-adv-x="843" 
d="M417 997q-194 0 -194 258h105q0 -77 19 -113t69 -36t69 37q18 37 19 112h106q1 -258 -193 -258zM592 356v537h149v-893h-149v125q-27 -63 -88 -103t-148 -40q-130 0 -198 78t-68 210v623h152v-586q0 -203 161 -203q85 0 137 68t52 184z" />
    <glyph glyph-name="Uring" unicode="&#x16e;" horiz-adv-x="987" 
d="M330 1497q0 68 46 113t119 45t119 -45t45 -113q0 -68 -45 -114q-44 -46 -118 -46t-120 46t-46 114zM418 1497q0 -78 78 -78t77 78q0 35 -20 57t-57 21q-38 1 -58 -21t-20 -57zM895 430q-1 -222 -109 -336t-291 -114t-293 114t-110 336v860h156v-856q0 -324 246 -323
q246 0 245 323v856h156v-860z" />
    <glyph glyph-name="uring" unicode="&#x16f;" horiz-adv-x="843" 
d="M592 356v537h149v-893h-149v125q-27 -63 -88 -103t-148 -40q-130 0 -198 78t-68 210v623h152v-586q0 -203 161 -203q85 0 137 68t52 184zM252 1139q0 69 46 113t119 44t119 -45t46 -113t-45 -114q-45 -45 -119 -45t-120 46t-46 114zM340 1139q0 -78 78 -78t78 78
q0 35 -20 57t-58 21q-38 1 -58 -21t-20 -57z" />
    <glyph glyph-name="Uhungarumlaut" unicode="&#x170;" horiz-adv-x="987" 
d="M625 1364h-78l71 256h170zM418 1364h-82l76 256h168zM895 430q-1 -222 -109 -336t-291 -114t-293 114t-110 336v860h156v-856q0 -324 246 -323q246 0 245 323v856h156v-860z" />
    <glyph glyph-name="uhungarumlaut" unicode="&#x171;" horiz-adv-x="843" 
d="M549 1006h-78l72 254h170zM342 1006h-82l76 254h168zM592 356v537h149v-893h-149v125q-27 -63 -88 -103t-148 -40q-130 0 -198 78t-68 210v623h152v-586q0 -203 161 -203q85 0 137 68t52 184z" />
    <glyph glyph-name="Uogonek" unicode="&#x172;" horiz-adv-x="987" 
d="M494 -20q-182 0 -292 114t-110 336v860h156v-856q0 -324 246 -323q246 0 245 323v856h156v-860q0 -152 -47 -243t-156 -169t-108 -186q0 -80 61 -80q29 0 53 8v-90q-35 -20 -91 -20t-95 39t-39 119t86 176q-40 -4 -65 -4z" />
    <glyph glyph-name="uogonek" unicode="&#x173;" horiz-adv-x="843" 
d="M592 0v125q-27 -63 -88 -103t-148 -40q-130 0 -198 78t-68 210v623h152v-586q0 -203 161 -203q86 0 138 68q51 68 51 184v537h149v-893q-104 -96 -104 -172t55 -76q25 0 49 8v-90q-39 -20 -89 -20t-88 38q-36 38 -36 105q1 105 103 207h-39z" />
    <glyph glyph-name="Wcircumflex" unicode="&#x174;" horiz-adv-x="1253" 
d="M543 1614h172l133 -256h-109l-110 158l-113 -158h-108zM555 1290h150l188 -1028h8l186 1028h150l-252 -1290h-168l-186 1034h-8l-187 -1034h-168l-252 1290h156l184 -1028h9z" />
    <glyph glyph-name="wcircumflex" unicode="&#x175;" horiz-adv-x="1075" 
d="M606 893l154 -660h8l156 660h135l-225 -893h-136l-157 676h-9l-155 -676h-135l-226 893h144l157 -660h9l153 660h127zM459 1245h164l133 -256h-105l-110 158l-113 -158h-104z" />
    <glyph glyph-name="Ycircumflex" unicode="&#x176;" horiz-adv-x="894" 
d="M365 1614h172l133 -256h-109l-110 158l-113 -158h-109zM522 0h-149v467l-365 823h162l285 -649l280 649h152l-365 -823v-467z" />
    <glyph glyph-name="ycircumflex" unicode="&#x177;" horiz-adv-x="774" 
d="M307 1245h164l133 -256h-104l-111 158l-113 -158h-104zM352 -344h-135l111 342l-312 895h148l233 -688h9l212 688h142z" />
    <glyph glyph-name="Ydieresis" unicode="&#x178;" horiz-adv-x="894" 
d="M492 1386v168h143v-168h-143zM264 1386v168h144v-168h-144zM522 0h-149v467l-365 823h162l285 -649l280 649h152l-365 -823v-467z" />
    <glyph glyph-name="Zacute" unicode="&#x179;" horiz-adv-x="841" 
d="M465 1364h-90l76 256h178zM791 131v-131h-742v109l557 1050h-547v131h725v-114l-555 -1045h562z" />
    <glyph glyph-name="zacute" unicode="&#x17a;" horiz-adv-x="686" 
d="M49 776v117h586v-102l-424 -672h434v-119h-604v104l420 672h-412zM385 1006h-90l76 254h178z" />
    <glyph glyph-name="Zdotaccent" unicode="&#x17b;" horiz-adv-x="841" 
d="M791 131v-131h-742v109l557 1050h-547v131h725v-114l-555 -1045h562zM342 1409v172h156v-172h-156z" />
    <glyph glyph-name="zdotaccent" unicode="&#x17c;" horiz-adv-x="686" 
d="M268 1051v172h156v-172h-156zM49 776v117h586v-102l-424 -672h434v-119h-604v104l420 672h-412z" />
    <glyph glyph-name="Zcaron" unicode="&#x17d;" horiz-adv-x="841" 
d="M791 131v-131h-742v109l557 1050h-547v131h725v-114l-555 -1045h562zM508 1364h-172l-135 256h108l113 -158l110 158h109z" />
    <glyph glyph-name="zcaron" unicode="&#x17e;" horiz-adv-x="686" 
d="M49 776v117h586v-102l-424 -672h434v-119h-604v104l420 672h-412zM430 1006h-164l-135 254h105l112 -156l111 156h104z" />
    <glyph glyph-name="florin" unicode="&#x192;" horiz-adv-x="786" 
d="M680 772v-119h-225l-117 -577q-27 -137 -90 -211t-185 -74q-25 0 -77 8v119q27 -6 51 -6q71 0 107 47t55 141l110 553h-159v119h184l53 258q27 129 96 205q70 76 183 76q43 0 96 -13v-116q-41 10 -68 10q-129 0 -168 -186l-47 -234h201z" />
    <glyph glyph-name="Aringacute" unicode="&#x1fa;" horiz-adv-x="989" 
d="M426 1462q0 -63 67 -63t66 63t-67 63t-66 -63zM543 1628h-90l47 174h164zM342 1462q0 56 41 96t110 40t109 -40q40 -38 41 -96q0 -58 -41 -96q-42 -39 -110 -39t-109 39t-41 96zM485 1112l-172 -590h351l-170 590h-9zM401 1290h187l385 -1290h-158l-115 393h-424
l-112 -393h-148z" />
    <glyph glyph-name="aringacute" unicode="&#x1fb;" horiz-adv-x="780" 
d="M664 610v-442q0 -61 49 -62q29 0 55 13v-99q-41 -30 -99 -30t-100 38q-41 38 -49 103q-31 -63 -94 -104q-62 -41 -160 -41t-162 60q-63 60 -63 162t59 160t172 109l248 109v24q0 182 -149 183q-160 0 -160 -179v-24h-137v26q0 135 79 215t220 80q291 0 291 -301zM520 362
v115l-196 -94q-72 -33 -105 -70t-33 -94q0 -117 127 -117q95 0 151 70t56 190zM428 1243h-90l47 176h164zM225 1078q0 58 41 98t111 38q71 0 111 -38t40 -98q0 -58 -41 -97t-111 -39t-110 39q-41 39 -41 97zM311 1077q0 -63 67 -63t66 63q0 63 -66 63t-67 -63z" />
    <glyph glyph-name="AEacute" unicode="&#x1fc;" horiz-adv-x="1400" 
d="M944 1364h-90l76 256h178zM707 541v598h-9l-280 -598h289zM707 0v412h-349l-192 -412h-150l609 1290h723v-131h-488v-428h385v-129h-385v-471h498v-131h-651z" />
    <glyph glyph-name="aeacute" unicode="&#x1fd;" horiz-adv-x="1241" 
d="M336 100q78 0 131 71t53 194v49h-114q-98 0 -158 -41t-62 -123q0 -150 150 -150zM662 512h387q-6 279 -189 279q-92 0 -145 -69t-53 -210zM1192 414h-530q0 -311 200 -312q92 0 137 54t50 168h137q-6 -160 -88 -251t-234 -91q-205 0 -278 188q-27 -82 -100 -134
q-72 -52 -184 -52t-186 70t-75 192q0 122 96 194t260 72h123v98q0 82 -37 132t-112 51q-160 0 -160 -179v-20h-137v24q0 133 79 213t216 80q172 0 241 -139q86 139 250 139q164 -1 248 -115t84 -327v-55zM657 1006h-90l76 254h178z" />
    <glyph glyph-name="Oslashacute" unicode="&#x1fe;" horiz-adv-x="983" 
d="M535 1364h-91l76 256h178zM768 598v102q0 160 -33 271l-428 -774q66 -88 185 -88q276 0 276 489zM215 590q0 -174 35 -281l430 778q-68 94 -188 95q-276 0 -277 -490v-102zM59 678q0 309 112 471t321 162q156 0 260 -94l57 102l88 -55l-74 -134q100 -164 101 -452v-66
q0 -309 -112 -471t-320 -161q-156 0 -256 88l-64 -115l-88 55l80 144q-104 160 -105 460v66z" />
    <glyph glyph-name="oslashacute" unicode="&#x1ff;" horiz-adv-x="796" 
d="M438 1006h-90l76 254h178zM195 420q0 -102 18 -170l317 491q-51 53 -133 54q-203 0 -202 -322v-53zM397 98q205 0 205 322v53q0 94 -20 172l-318 -493q51 -54 133 -54zM49 424v45q0 209 94 326t254 116q115 0 201 -63l59 92l80 -53l-71 -111q82 -121 82 -307v-45
q0 -209 -96 -326t-255 -116q-123 0 -200 63l-60 -92l-78 55l70 109q-80 115 -80 307z" />
    <glyph glyph-name="Scommaaccent" unicode="&#x218;" horiz-adv-x="854" 
d="M53 976q-1 144 97 240q98 94 274 94t273 -110q97 -111 98 -282v-56h-142v53q0 123 -61 198q-62 75 -170 75t-164 -58t-55 -148q0 -89 40 -137t122 -83l170 -70q141 -59 209 -143q68 -85 69 -231q0 -146 -99 -242t-283 -96t-288 110t-104 316v38h141v-36q0 -150 69 -228
t183 -78t172 58t58 152q0 96 -46 149t-145 92l-158 61q-127 50 -193 134t-67 228zM352 -207v123h154v-96q0 -166 -162 -166v65q70 0 72 74h-64z" />
    <glyph glyph-name="scommaaccent" unicode="&#x219;" horiz-adv-x="712" 
d="M362 94q82 0 124 36q40 36 40 94t-30 85q-31 27 -109 53l-111 37q-106 37 -160 95t-54 166q0 110 76 181q78 71 218 71t218 -86q78 -85 77 -228h-129q-4 201 -180 201q-66 0 -106 -36t-39 -95q-1 -59 31 -87t104 -55l104 -34q117 -40 171 -96q55 -56 55 -166t-78 -179
t-220 -69t-233 81q-90 82 -92 234h131q2 -99 56 -151t136 -52zM279 -207v123h153v-96q0 -166 -162 -166v65q70 0 72 74h-63z" />
    <glyph glyph-name="uni0237" unicode="&#x237;" horiz-adv-x="346" 
d="M248 893v-1034q0 -223 -201 -224q-80 0 -131 35l21 107q45 -23 90 -23t58 23t13 71v1045h150z" />
    <glyph glyph-name="circumflex" unicode="&#x2c6;" 
d="M203 1245h164l133 -256h-105l-110 158l-113 -158h-104z" />
    <glyph glyph-name="caron" unicode="&#x2c7;" 
d="M367 1006h-164l-135 254h104l113 -156l110 156h105z" />
    <glyph glyph-name="breve" unicode="&#x2d8;" 
d="M284 997q-194 0 -194 258h105q0 -77 19 -113q20 -36 70 -36t68 37t19 112h106q1 -258 -193 -258z" />
    <glyph glyph-name="dotaccent" unicode="&#x2d9;" 
d="M207 1051v172h155v-172h-155z" />
    <glyph glyph-name="ring" unicode="&#x2da;" 
d="M119 1139q0 69 46 113t119 44q72 0 118 -45t46 -113t-46 -114q-46 -45 -118 -45t-119 46q-46 46 -46 114zM207 1139q0 -78 78 -78t77 78q0 35 -20 57t-57 21q-37 1 -57 -21t-21 -57z" />
    <glyph glyph-name="ogonek" unicode="&#x2db;" 
d="M270 -174q0 -74 64 -74q29 0 53 8v-90q-39 -20 -94 -20t-93 39t-38 104q0 111 127 232h96q-115 -125 -115 -199z" />
    <glyph glyph-name="tilde" unicode="&#x2dc;" 
d="M53 1014q0 227 133 227q48 0 104 -54t81 -54q49 0 51 106h92q0 -229 -133 -229q-49 0 -105 54t-79 54q-50 0 -52 -104h-92z" />
    <glyph glyph-name="hungarumlaut" unicode="&#x2dd;" 
d="M346 1006h-78l72 254h170zM139 1006h-82l76 254h168z" />
    <glyph glyph-name="Wgrave" unicode="&#x1e80;" horiz-adv-x="1253" 
d="M555 1290h150l188 -1028h8l186 1028h150l-252 -1290h-168l-186 1034h-8l-187 -1034h-168l-252 1290h156l184 -1028h9zM676 1364h-90l-164 256h178z" />
    <glyph glyph-name="wgrave" unicode="&#x1e81;" horiz-adv-x="1075" 
d="M588 1006h-90l-164 254h178zM606 893l154 -660h8l156 660h135l-225 -893h-136l-157 676h-9l-155 -676h-135l-226 893h144l157 -660h9l153 660h127z" />
    <glyph glyph-name="Wacute" unicode="&#x1e82;" horiz-adv-x="1253" 
d="M555 1290h150l188 -1028h8l186 1028h150l-252 -1290h-168l-186 1034h-8l-187 -1034h-168l-252 1290h156l184 -1028h9zM670 1364h-90l75 256h179z" />
    <glyph glyph-name="wacute" unicode="&#x1e83;" horiz-adv-x="1075" 
d="M606 893l154 -660h8l156 660h135l-225 -893h-136l-157 676h-9l-155 -676h-135l-226 893h144l157 -660h9l153 660h127zM578 1006h-91l76 254h178z" />
    <glyph glyph-name="Wdieresis" unicode="&#x1e84;" horiz-adv-x="1253" 
d="M555 1290h150l188 -1028h8l186 1028h150l-252 -1290h-168l-186 1034h-8l-187 -1034h-168l-252 1290h156l184 -1028h9zM670 1386v168h143v-168h-143zM442 1386v168h144v-168h-144z" />
    <glyph glyph-name="wdieresis" unicode="&#x1e85;" horiz-adv-x="1075" 
d="M606 893l154 -660h8l156 660h135l-225 -893h-136l-157 676h-9l-155 -676h-135l-226 893h144l157 -660h9l153 660h127zM582 1028v166h143v-166h-143zM354 1028v166h144v-166h-144z" />
    <glyph glyph-name="Ygrave" unicode="&#x1ef2;" horiz-adv-x="894" 
d="M498 1364h-90l-164 256h178zM522 0h-149v467l-365 823h162l285 -649l280 649h152l-365 -823v-467z" />
    <glyph glyph-name="ygrave" unicode="&#x1ef3;" horiz-adv-x="774" 
d="M438 1006h-90l-164 254h178zM352 -344h-135l111 342l-312 895h148l233 -688h9l212 688h142z" />
    <glyph glyph-name="endash" unicode="&#x2013;" horiz-adv-x="774" 
d="M63 467v113h650v-113h-650z" />
    <glyph glyph-name="emdash" unicode="&#x2014;" horiz-adv-x="1062" 
d="M63 467v113h938v-113h-938z" />
    <glyph glyph-name="quoteleft" unicode="&#x2018;" horiz-adv-x="268" 
d="M225 1104v-178h-180v180q0 98 40 146t140 48v-88q-53 -2 -68 -21t-16 -87h84z" />
    <glyph glyph-name="quoteright" unicode="&#x2019;" horiz-adv-x="268" 
d="M49 1112v178h180v-180q0 -98 -40 -145t-140 -50v89q53 2 69 21q15 19 15 87h-84z" />
    <glyph glyph-name="quotesinglbase" unicode="&#x201a;" horiz-adv-x="268" 
d="M49 0v178h180v-182q0 -98 -40 -146t-140 -47v86q53 2 69 24q15 22 15 87h-84z" />
    <glyph glyph-name="quotedblleft" unicode="&#x201c;" horiz-adv-x="509" 
d="M465 1104v-178h-180v180q0 98 40 146t140 48v-88q-53 -2 -69 -21t-15 -87h84zM225 1104v-178h-180v180q0 98 40 146t140 48v-88q-53 -2 -68 -21t-16 -87h84z" />
    <glyph glyph-name="quotedblright" unicode="&#x201d;" horiz-adv-x="509" 
d="M49 1114v178h180v-180q0 -98 -40 -146t-140 -48v88q53 2 69 21q15 19 15 87h-84zM291 1114v178h180v-180q0 -98 -41 -146t-139 -48v88q51 2 66 21t18 87h-84z" />
    <glyph glyph-name="quotedblbase" unicode="&#x201e;" horiz-adv-x="509" 
d="M49 0v178h180v-182q0 -98 -40 -146t-140 -47v86q53 2 69 24q15 22 15 87h-84zM291 0v178h180v-182q0 -96 -41 -144t-139 -49v86q51 2 66 24t18 87h-84z" />
    <glyph glyph-name="dagger" unicode="&#x2020;" horiz-adv-x="464" 
d="M20 1059v94h164v154h97v-154h163v-94h-163v-348h-97v348h-164z" />
    <glyph glyph-name="daggerdbl" unicode="&#x2021;" horiz-adv-x="481" 
d="M31 860v88h164v121h-164v88h164v150h92v-150h164v-88h-164v-121h164v-88h-164v-149h-92v149h-164z" />
    <glyph glyph-name="bullet" unicode="&#x2022;" horiz-adv-x="616" 
d="M553 524q0 -104 -71 -174t-174 -70t-173 70t-69 174q0 104 69 174q70 70 173 70t174 -70t71 -174z" />
    <glyph glyph-name="ellipsis" unicode="&#x2026;" horiz-adv-x="862" 
d="M612 0v184h187v-184h-187zM338 0v184h186v-184h-186zM63 0v184h187v-184h-187z" />
    <glyph glyph-name="perthousand" unicode="&#x2030;" horiz-adv-x="1454" 
d="M983 273q0 132 59 209q58 77 158 77t160 -77t61 -209q0 -132 -60 -210q-59 -77 -159 -77t-160 77q-59 78 -59 210zM1096 272q0 -90 28 -139t78 -49q109 0 109 188t-109 189q-106 -1 -106 -189zM504 273q0 132 59 209t159 77t160 -77t60 -209t-60 -210q-60 -77 -160 -77
t-159 77q-59 78 -59 210zM616 272q0 -90 29 -139t78 -49q109 0 108 188q0 188 -108 189q-107 -1 -107 -189zM33 1017q0 132 59 210q60 78 160 78t160 -78t59 -210q0 -132 -59 -209q-60 -77 -160 -77t-160 77q-59 77 -59 209zM102 0l656 1290h114l-655 -1290h-115zM143 1018
q0 -188 107 -189q108 1 108 189t-108 188q-49 0 -78 -49t-29 -139z" />
    <glyph glyph-name="guilsinglleft" unicode="&#x2039;" horiz-adv-x="423" 
d="M59 383v127l306 264v-162l-193 -166l193 -167v-160z" />
    <glyph glyph-name="guilsinglright" unicode="&#x203a;" horiz-adv-x="423" 
d="M365 510v-127l-306 -264v160l193 167l-193 166v162z" />
    <glyph glyph-name="fraction" unicode="&#x2044;" horiz-adv-x="770" 
d="M0 0l655 1290h115l-655 -1290h-115z" />
    <glyph glyph-name="Euro" unicode="&#x20ac;" horiz-adv-x="1032" 
d="M41 479v101h106v122h-106v101h111q20 250 130 379t304 129q194 -1 292 -143q99 -142 99 -384v-28h-148v26q0 399 -251 400q-242 0 -271 -379h260l-20 -101h-242v-122h221l-20 -101h-197q29 -371 269 -370q252 0 251 399v27h148v-29q0 -242 -99 -384q-100 -142 -292 -142
t-302 126t-130 373h-113z" />
    <glyph glyph-name="uni2117" unicode="&#x2117;" horiz-adv-x="1306" 
d="M592 543v-281h-119v764h201q260 0 260 -242t-260 -241h-82zM592 637h67q80 0 118 33q38 34 38 114t-38 113t-118 33h-67v-293zM653 1223q-225 0 -362 -162t-137 -415t137 -415q137 -161 362 -161t363 161q137 162 137 415t-137 415q-138 162 -363 162zM653 1313
q262 -1 432 -189t170 -479t-170 -479t-432 -188t-432 188t-170 479t170 479t432 189z" />
    <glyph glyph-name="trademark" unicode="&#x2122;" horiz-adv-x="901" 
d="M502 1188v-346h-84v448h133l86 -315h2l84 315h133v-448h-90v346h-4l-96 -346h-64l-96 346h-4zM236 842h-99v366h-123v82h348v-82h-126v-366z" />
    <glyph glyph-name="uni2153" unicode="&#x2153;" horiz-adv-x="647" 
d="M496 162q0 -84 -47 -128t-135 -44t-135 49q-48 49 -48 135v23h105v-23q0 -96 79 -96q74 0 74 79t-78 79q-27 0 -41 -3v82q14 -2 41 -2q76 0 76 78t-75 78t-74 -96v-19h-103v21q0 84 46 133t132 49t133 -44t48 -118q0 -99 -84 -119q86 -30 86 -114zM61 612v66h525v-66
h-525zM172 1135v71q49 2 75 20t36 64h82v-551h-111v396h-82z" />
    <glyph glyph-name="uni2154" unicode="&#x2154;" horiz-adv-x="647" 
d="M500 831v-92h-359v78l148 152q43 47 56 62q44 51 44 99q0 76 -72 76t-71 -96v-25h-103v31q0 82 45 131t130 49q84 0 132 -42t48 -122t-111 -196l-106 -105h219zM496 162q0 -84 -47 -128t-135 -44t-135 49q-48 49 -48 135v23h105v-23q0 -96 79 -96q74 0 74 79t-78 79
q-27 0 -41 -3v82q14 -2 41 -2q76 0 76 78t-75 78t-74 -96v-19h-103v21q0 84 46 133t132 49t133 -44t48 -118q0 -99 -84 -119q86 -30 86 -114zM61 612v66h525v-66h-525z" />
    <glyph glyph-name="uni215B" unicode="&#x215b;" horiz-adv-x="647" 
d="M61 612v66h525v-66h-525zM180 1135v71q47 2 73 20t36 64h82v-551h-111v396h-80zM324 238q-84 0 -84 -80t84 -80t84 80t-84 80zM323 -8q-85 0 -138 43q-52 43 -52 115q0 102 88 126q-80 25 -80 123q0 72 49 115q48 43 134 43t134 -42t48 -116q0 -98 -82 -123
q88 -25 88 -126q0 -72 -52 -115t-137 -43zM324 471q-76 0 -76 -78t76 -78t75 78q1 78 -75 78z" />
    <glyph glyph-name="uni215C" unicode="&#x215c;" horiz-adv-x="647" 
d="M502 906q0 -85 -47 -129t-134 -44t-136 49q-48 49 -48 133v23h105v-23q0 -96 78 -96t77 84q0 76 -80 76q-25 0 -38 -2v80q14 -2 38 -2q76 0 76 79t-71 78q-78 0 -78 -98v-18h-103v20q0 84 47 133q46 49 132 49t133 -43t47 -116q0 -101 -82 -121q84 -27 84 -112zM61 612
v66h525v-66h-525zM324 238q-84 0 -84 -80t84 -80t84 80t-84 80zM323 -8q-85 0 -138 43q-52 43 -52 115q0 102 88 126q-80 25 -80 123q0 72 49 115q48 43 134 43t134 -42t48 -116q0 -98 -82 -123q88 -25 88 -126q0 -72 -52 -115t-137 -43zM324 471q-76 0 -76 -78t76 -78
t75 78q1 78 -75 78z" />
    <glyph glyph-name="uni215D" unicode="&#x215d;" horiz-adv-x="647" 
d="M319 1026q-57 0 -75 -53l-103 8q23 150 27 309h303v-96h-223q0 -74 -8 -127q36 41 106 41t115 -46t45 -136t-50 -142t-138 -51q-88 0 -135 49q-48 49 -48 136v16h105v-16q0 -98 79 -99q80 -1 80 103t-80 104zM61 612v66h525v-66h-525zM324 238q-84 0 -84 -80t84 -80
t84 80t-84 80zM323 -8q-85 0 -138 43q-52 43 -52 115q0 102 88 126q-80 25 -80 123q0 72 49 115q48 43 134 43t134 -42t48 -116q0 -98 -82 -123q88 -25 88 -126q0 -72 -52 -115t-137 -43zM324 471q-76 0 -76 -78t76 -78t75 78q1 78 -75 78z" />
    <glyph glyph-name="uni215E" unicode="&#x215e;" horiz-adv-x="647" 
d="M147 1190v100h367v-86q-150 -195 -149 -463h-113q2 252 149 449h-254zM61 612v66h525v-66h-525zM324 238q-84 0 -84 -80t84 -80t84 80t-84 80zM323 -8q-85 0 -138 43q-52 43 -52 115q0 102 88 126q-80 25 -80 123q0 72 49 115q48 43 134 43t134 -42t48 -116
q0 -98 -82 -123q88 -25 88 -126q0 -72 -52 -115t-137 -43zM324 471q-76 0 -76 -78t76 -78t75 78q1 78 -75 78z" />
    <glyph glyph-name="minus" unicode="&#x2212;" horiz-adv-x="894" 
d="M74 563v121h747v-121h-747z" />
    <glyph glyph-name="approxequal" unicode="&#x2248;" horiz-adv-x="917" 
d="M268 598q82 0 189 -33q106 -33 185 -33t192 68v-117q-106 -68 -207 -67q-63 0 -169 34t-186 34q-79 0 -188 -70v116q102 68 184 68zM270 834q80 0 187 -33q106 -33 185 -33t192 68v-117q-106 -68 -188 -68t-188 32t-190 32q-82 0 -184 -66v117q106 68 186 68z" />
    <glyph glyph-name="notequal" unicode="&#x2260;" horiz-adv-x="917" 
d="M84 692v113h446l129 178h117l-129 -178h187v-113h-269l-98 -137h367v-113h-449l-127 -176h-117l127 176h-184v113h266l99 137h-365z" />
    <glyph glyph-name="lessequal" unicode="&#x2264;" horiz-adv-x="684" 
d="M57 651v148l572 241v-131l-445 -182l445 -186v-135zM57 219v123h572v-123h-572z" />
    <glyph glyph-name="greaterequal" unicode="&#x2265;" horiz-adv-x="684" 
d="M629 799v-148l-572 -245v135l445 186l-445 182v131zM629 342v-123h-572v123h572z" />
    <glyph glyph-name="i.dot" horiz-adv-x="346" 
d="M96 1051v172h156v-172h-156zM98 893h150v-893h-150v893z" />
    <glyph glyph-name="space_uni0326" 
d="M209 -207v123h153v-96q0 -166 -161 -166v65q70 0 71 74h-63z" />
    <glyph glyph-name="space_uni0326.alt" 
d="M362 1147v-121h-155v94q0 166 164 166v-65q-39 1 -55 -17t-17 -57h63z" />
    <glyph glyph-name="space_dotbelowcomb" 
d="M205 -274v170h157v-170h-157z" />
    <glyph glyph-name="caron.Slovak" 
d="M262 1024h-82l33 266h174z" />
    <glyph glyph-name="cedilla.alt" 
d="M461 -212q0 -71 -49 -109t-121 -37q-104 0 -172 67l31 80q59 -59 134 -59t74 55q0 78 -163 65l57 173h72l-29 -97q70 -2 118 -34t48 -104z" />
    <glyph glyph-name="grave.cap" 
d="M412 1364h-90l-164 256h178z" />
    <glyph glyph-name="acute.cap" 
d="M248 1364h-90l75 256h179z" />
    <glyph glyph-name="circumflex.cap" 
d="M199 1614h172l133 -256h-109l-110 158l-113 -158h-109z" />
    <glyph glyph-name="caron.cap" 
d="M371 1364h-172l-136 256h109l113 -158l110 158h109z" />
    <glyph glyph-name="tilde.cap" 
d="M53 1372q0 229 133 230q48 0 104 -54t81 -55q49 0 51 104h92q0 -227 -133 -227q-49 0 -105 54t-79 55q-50 -1 -52 -107h-92z" />
    <glyph glyph-name="macron.cap" 
d="M98 1391v118h371v-118h-371z" />
    <glyph glyph-name="breve.cap" 
d="M284 1358q-194 0 -194 256h105q0 -76 19 -113q20 -37 70 -37t68 37t19 113h106q1 -256 -193 -256z" />
    <glyph glyph-name="dotaccent.cap" 
d="M207 1409v172h155v-172h-155z" />
    <glyph glyph-name="dieresis.cap" 
d="M326 1386v168h143v-168h-143zM98 1386v168h144v-168h-144z" />
    <glyph glyph-name="ring.cap" 
d="M119 1497q0 68 46 113t119 45q72 0 118 -45t46 -113t-46 -114t-118 -46t-119 46q-46 46 -46 114zM207 1497q0 -78 78 -78t77 78q0 35 -20 57t-57 21q-37 1 -57 -21t-21 -57z" />
    <glyph glyph-name="hungarumlaut.cap" 
d="M346 1364h-78l72 256h170zM139 1364h-82l76 256h168z" />
    <glyph glyph-name="exclamdown.cap" horiz-adv-x="309" 
d="M236 0h-162v365l47 600h65l50 -600v-365zM61 1104v186h187v-186h-187z" />
    <glyph glyph-name="questiondown.cap" horiz-adv-x="790" 
d="M502 1290v-186h-187v186h187zM178 327q0 -94 62 -157q62 -64 166 -64t161 69t58 200v71h147v-79q0 -179 -99 -283t-271 -104t-272 97q-101 97 -101 263q0 100 40 179t132 190q129 150 131 249h141q-1 -84 -35 -152t-113 -158q-79 -91 -113 -159t-34 -162z" />
    <glyph glyph-name="guilsinglleft.cap" horiz-adv-x="423" 
d="M59 592v127l306 264v-162l-193 -166l193 -166v-161z" />
    <glyph glyph-name="guilsinglright.cap" horiz-adv-x="423" 
d="M365 719v-127l-306 -264v161l193 166l-193 166v162z" />
    <glyph glyph-name="guillemotleft.cap" horiz-adv-x="749" 
d="M385 592v127l305 264v-162l-192 -166l192 -166v-161zM59 592v127l306 264v-162l-193 -166l193 -166v-161z" />
    <glyph glyph-name="guillemotright.cap" horiz-adv-x="749" 
d="M690 719v-127l-305 -264v161l193 166l-193 166v162zM365 719v-127l-306 -264v161l193 166l-193 166v162z" />
    <glyph glyph-name="slash.cap" horiz-adv-x="528" 
d="M0 0l389 1290h139l-389 -1290h-139z" />
    <glyph glyph-name="backslash.cap" horiz-adv-x="528" 
d="M139 1290l389 -1290h-139l-389 1290h139z" />
    <glyph glyph-name="bar.cap" horiz-adv-x="342" 
d="M106 0v1290h132v-1290h-132z" />
    <glyph glyph-name="periodcentered.cap" horiz-adv-x="325" 
d="M70 547v184h186v-184h-186z" />
    <glyph glyph-name="bullet.cap" horiz-adv-x="616" 
d="M553 647q0 -104 -71 -174t-174 -70t-173 70t-69 174q0 104 69 174q70 70 173 70t174 -70t71 -174z" />
    <glyph glyph-name="hyphen.cap" horiz-adv-x="505" 
d="M63 578v135h379v-135h-379z" />
    <glyph glyph-name="endash.cap" horiz-adv-x="774" 
d="M63 590v112h650v-112h-650z" />
    <glyph glyph-name="emdash.cap" horiz-adv-x="1062" 
d="M63 590v112h938v-112h-938z" />
    <glyph glyph-name="parenleft.cap" horiz-adv-x="444" 
d="M47 623q0 211 67 413t185 348h145q-248 -322 -248 -762t248 -761h-145q-119 147 -185 349q-67 202 -67 413z" />
    <glyph glyph-name="parenright.cap" horiz-adv-x="444" 
d="M397 623q-1 -211 -67 -413t-185 -349h-145q248 322 248 762t-248 761h145q119 -146 185 -348t67 -413z" />
    <glyph glyph-name="bracketleft.cap" horiz-adv-x="423" 
d="M250 1270v-1295h164v-114h-299v1523h299v-114h-164z" />
    <glyph glyph-name="bracketright.cap" horiz-adv-x="423" 
d="M174 -25v1295h-164v114h299v-1523h-299v114h164z" />
    <glyph glyph-name="braceleft.cap" horiz-adv-x="434" 
d="M27 565v115h34q61 0 79 31q17 31 18 118v357q0 100 41 149t135 49h90v-110h-70q-61 0 -61 -76v-371q0 -90 -28 -140t-103 -64q76 -15 104 -65t27 -142v-369q0 -76 61 -76h70v-110h-90q-94 0 -135 49t-41 149v357q0 88 -18 119t-79 30h-34z" />
    <glyph glyph-name="braceright.cap" horiz-adv-x="434" 
d="M408 680v-115h-35q-61 0 -79 -30q-17 -31 -18 -119v-357q0 -100 -40 -149t-136 -49h-90v110h70q61 0 61 76v369q0 92 28 142t103 65q-76 14 -104 64t-27 140v371q0 76 -61 76h-70v110h90q94 0 136 -49t40 -149v-357q0 -89 18 -119t79 -30h35z" />
    <glyph glyph-name="at.cap" horiz-adv-x="1343" 
d="M700 899q-98 0 -156 -103t-59 -231q0 -164 121 -164q66 -1 124 57t77 167l10 47q20 100 -12 164q-33 63 -105 63zM977 391q84 0 136 96t52 298t-114 335q-115 133 -322 133q-248 0 -396 -181q-149 -180 -149 -454t140 -424t345 -151q206 0 365 90l37 -78
q-164 -115 -395 -114q-264 0 -436 175q-172 176 -172 496t182 533t479 213q255 0 403 -164t148 -410t-92 -371q-92 -124 -227 -124q-72 0 -115 36t-51 97q-63 -133 -213 -133q-106 0 -168 75t-62 221t91 283t239 138q68 0 117 -36t67 -93l25 112h121l-105 -477
q-24 -121 70 -121z" />
    <glyph glyph-name="Euro.lt" horiz-adv-x="1024" 
d="M37 479v101h102v122h-102v101h106q21 250 127 379t295 129q189 -1 287 -143t98 -384v-28h-145v26q0 399 -244 400q-240 0 -266 -379h250l-21 -101h-231v-122h211l-21 -101h-186q29 -371 264 -370q244 0 244 399v27h145v-29q0 -242 -98 -384t-286 -142t-295 126
q-108 126 -128 373h-106z" />
    <glyph glyph-name="dollar.lt" horiz-adv-x="1024" 
d="M264 981q0 -88 43 -139t137 -88l29 -11v445q-97 -6 -153 -62t-56 -145zM571 557v-459q99 10 157 68t58 152q0 92 -51 146t-160 93h-4zM119 967q0 147 94 240t260 102v166h98v-168q168 -19 251 -125t83 -267v-55h-139v55q0 229 -195 269v-477l60 -21q153 -55 225 -138
q72 -82 72 -226t-94 -238t-263 -102v-170h-98v172q-182 16 -276 127t-95 295v38h142v-38q0 -272 229 -304v490l-76 26q-278 95 -278 349z" />
    <glyph glyph-name="cent.lt" horiz-adv-x="1024" 
d="M285 424q0 -285 182 -322v686q-182 -37 -182 -317v-47zM141 422v47q0 190 88 306t238 132v160h96v-160q147 -14 223 -115t76 -253v-17h-131v19q0 219 -168 250v-691q82 14 125 80t43 170v21h131v-21q0 -152 -77 -253t-222 -115v-162h-96v164q-150 16 -238 130t-88 308z
" />
    <glyph glyph-name="sterling.lt" horiz-adv-x="1024" 
d="M254 84q90 0 119 135q-55 45 -103 45t-72 -24q-26 -24 -26 -67q0 -41 22 -65t60 -24zM369 939q0 -103 47 -234h260v-105h-223q57 -158 57 -278q0 -45 -8 -84q44 -44 70 -64t71 -40t90 -21q76 0 108 53t31 166h117q9 -174 -57 -263t-193 -89q-86 0 -147 38t-127 107
q-70 -145 -213 -145q-82 0 -137 50t-55 138t58 143t132 55t131 -32q-4 123 -68 266h-174v105h131q-49 119 -49 239q0 160 93 263t256 103t258 -110q95 -111 96 -307h-136q0 287 -219 287q-102 0 -151 -69t-49 -172z" />
    <glyph glyph-name="yen.lt" horiz-adv-x="1024" 
d="M145 557v105h238l-336 628h160l311 -581l307 581h152l-338 -628h240v-105h-295v-117h295v-104h-295v-336h-144v336h-295v104h295v117h-295z" />
    <glyph glyph-name="florin.lt" horiz-adv-x="1024" 
d="M817 772v-119h-223l-117 -577q-27 -137 -91 -211t-185 -74q-20 0 -78 8v119q31 -6 51 -6q70 0 107 47t55 141l113 553h-160v119h184l53 258q27 129 97 205t182 76q43 0 94 -13v-116q-41 10 -65 10q-131 0 -168 -186l-48 -234h199z" />
    <glyph glyph-name="zero.lt" horiz-adv-x="1024" 
d="M221 686v-82q0 -227 75 -361t216 -134t216 134t75 361v82q0 228 -75 362t-216 134t-216 -134t-75 -362zM961 666v-41q0 -305 -121 -475t-328 -170t-328 170t-121 475v41q0 305 121 475t328 170t328 -170t121 -475z" />
    <glyph glyph-name="one.lt" horiz-adv-x="1024" 
d="M129 0v127h344v874h-289v109h95q119 0 171 37t82 151h97v-1171h299v-127h-799z" />
    <glyph glyph-name="two.lt" horiz-adv-x="1024" 
d="M928 137v-137h-838v106l361 367q154 156 223 259q70 104 70 210t-66 173t-178 67t-178 -74t-66 -205v-69h-145v75q0 182 104 292q105 110 291 110q186 1 288 -99t101 -268q0 -130 -74 -246t-248 -290l-276 -271h631z" />
    <glyph glyph-name="three.lt" horiz-adv-x="1024" 
d="M915 348q1 -166 -107 -267t-300 -101t-296 110q-105 110 -106 305v51h150v-53q0 -135 69 -212t189 -77t184 67q66 67 66 183t-67 176q-67 59 -185 60q-61 0 -117 -6v131q55 -6 117 -6q244 0 244 227q0 114 -64 182t-182 68q-119 0 -181 -78t-63 -217v-37h-149v39
q0 190 100 304q99 114 289 114q190 -1 296 -101t105 -268q-1 -120 -59 -194t-160 -99q227 -57 227 -301z" />
    <glyph glyph-name="four.lt" horiz-adv-x="1024" 
d="M643 457v622l-450 -622h450zM791 1290v-833h178v-123h-178v-334h-148v334h-592v123l600 833h140z" />
    <glyph glyph-name="five.lt" horiz-adv-x="1024" 
d="M506 104q122 0 196 80t74 233t-74 233t-180 81q-108 0 -175 -49t-91 -121l-141 12q35 186 49 717h680v-141h-563q-8 -332 -23 -418q86 125 268 125t289 -112t107 -322t-112 -327q-112 -115 -308 -115t-301 114q-104 114 -105 316v39h146v-39q0 -143 70 -225
q71 -81 194 -81z" />
    <glyph glyph-name="six.lt" horiz-adv-x="1024" 
d="M528 694q-122 0 -194 -81t-72 -213t74 -214t194 -82t198 83q77 83 77 213t-77 212t-200 82zM532 -20q-224 0 -336 162t-112 464v51q0 303 116 479t332 175q186 0 286 -110t102 -294h-146q0 127 -63 202t-179 75q-303 0 -303 -578q35 92 122 152t202 59q178 -1 288 -113
q109 -112 109 -303t-118 -306t-300 -115z" />
    <glyph glyph-name="seven.lt" horiz-adv-x="1024" 
d="M86 1149v141h842v-112q-373 -465 -373 -1178h-164q4 338 103 633q98 295 272 516h-680z" />
    <glyph glyph-name="eight.lt" horiz-adv-x="1024" 
d="M512 -20q-194 0 -308 100t-114 260q0 123 67 206t173 107q-98 25 -158 106q-59 81 -59 199q0 158 105 255q106 97 294 97t294 -96q106 -98 105 -256q0 -120 -59 -200t-158 -105q106 -25 173 -107t67 -206q0 -160 -114 -260t-308 -100zM512 102q123 0 195 65q71 65 71 181
t-72 180t-194 64q-123 0 -195 -65q-71 -65 -71 -181t72 -180t194 -64zM512 713q116 0 182 62t66 174t-68 175q-68 64 -180 64t-180 -64t-68 -175q0 -112 66 -174t182 -62z" />
    <glyph glyph-name="nine.lt" horiz-adv-x="1024" 
d="M496 596q122 0 194 81t72 213t-74 214t-194 82t-198 -83q-77 -83 -77 -213t77 -212t200 -82zM492 1311q224 0 336 -163t112 -464v-51q0 -303 -116 -478t-332 -175q-186 0 -286 109q-99 110 -102 294h146q0 -127 63 -202t179 -75q303 0 303 578q-35 -92 -122 -152
t-202 -59q-178 0 -288 113q-109 114 -109 304t118 306t300 115z" />
    <glyph glyph-name="period.tab" horiz-adv-x="512" 
d="M164 0v184h184v-184h-184z" />
    <glyph glyph-name="comma.tab" horiz-adv-x="512" 
d="M164 0v184h184v-190q0 -98 -41 -148t-143 -49v88q51 2 67 25t17 90h-84z" />
    <glyph glyph-name="colon.tab" horiz-adv-x="512" 
d="M164 655v185h184v-185h-184zM164 0v184h184v-184h-184z" />
    <glyph glyph-name="semicolon.tab" horiz-adv-x="512" 
d="M164 655v185h184v-185h-184zM164 0v184h184v-190q0 -98 -41 -148t-143 -49v88q51 2 67 25t17 90h-84z" />
    <glyph glyph-name="space.tab" horiz-adv-x="512" 
 />
    <glyph glyph-name="percent.lt" horiz-adv-x="1024" 
d="M520 267q0 130 58 206t156 76t156 -77t58 -206t-58 -205q-58 -75 -156 -75t-156 76t-58 205zM631 267q0 -185 104 -185q105 0 105 185t-105 186q-104 -1 -104 -186zM127 0l657 1290h111l-655 -1290h-113zM74 1024q0 129 58 205t156 76t155 -76q59 -76 59 -206t-58 -206
t-156 -76q-97 0 -156 77q-58 77 -58 206zM182 1023q0 -185 104 -185t105 185q-1 185 -105 185t-104 -185z" />
    <glyph glyph-name="perthousand.lt" horiz-adv-x="1556" 
d="M1024 267q0 130 58 206t156 76t156 -77t58 -206t-58 -205q-58 -75 -156 -75t-156 75q-58 76 -58 206zM1135 267q0 -185 104 -185t104 185t-104 186q-104 -1 -104 -186zM551 267q0 130 58 206q57 76 155 76t156 -77t59 -206q0 -129 -58 -205q-57 -75 -155 -75t-157 75
q-58 76 -58 206zM662 267q0 -185 104 -185t104 185t-104 186q-104 -1 -104 -186zM158 0l657 1290h111l-656 -1290h-112zM104 1024q0 129 58 205t156 76t156 -76t58 -206t-58 -206t-156 -76t-156 77t-58 206zM317 838q105 0 105 185t-104 185t-105 -185q0 -185 104 -185z" />
    <glyph glyph-name="plus.lt" horiz-adv-x="1024" 
d="M449 999h120v-313h316v-121h-316v-313h-120v313h-312v121h312v313z" />
    <glyph glyph-name="minus.lt" horiz-adv-x="1024" 
d="M137 563v121h748v-121h-748z" />
    <glyph glyph-name="multiply.lt" horiz-adv-x="1024" 
d="M430 618l-229 228l84 86l225 -230l225 230l86 -86l-227 -228l227 -227l-86 -84l-225 230l-225 -230l-84 84z" />
    <glyph glyph-name="divide.lt" horiz-adv-x="1024" 
d="M424 236v167h176v-167h-176zM424 842v170h176v-170h-176zM137 563v121h748v-121h-748z" />
    <glyph glyph-name="equal.lt" horiz-adv-x="1024" 
d="M137 690v117h750v-117h-750zM137 440v115h750v-115h-750z" />
    <glyph glyph-name="less.lt" horiz-adv-x="1024" 
d="M225 541v161l572 287v-139l-461 -227l461 -232v-141z" />
    <glyph glyph-name="greater.lt" horiz-adv-x="1024" 
d="M797 702v-161l-570 -291v141l457 232l-457 227v139z" />
    <glyph glyph-name="plusminus.lt" horiz-adv-x="1024" 
d="M141 219v123h740v-123h-740zM449 1053h120v-256h312v-119h-312v-256h-120v256h-308v119h308v256z" />
    <glyph glyph-name="lessequal.lt" horiz-adv-x="1024" 
d="M225 651v148l574 241v-131l-445 -182l445 -186v-135zM225 219v123h574v-123h-574z" />
    <glyph glyph-name="greaterequal.lt" horiz-adv-x="1024" 
d="M799 799v-148l-574 -245v135l445 186l-445 182v131zM799 342v-123h-574v123h574z" />
    <glyph glyph-name="notequal.lt" horiz-adv-x="1024" 
d="M137 692v113h445l129 178h118l-129 -178h187v-113h-269l-98 -137h367v-113h-449l-127 -176h-116l127 176h-185v113h264l99 137h-363z" />
    <glyph glyph-name="approxequal.lt" horiz-adv-x="1024" 
d="M320 598q84 0 190 -33t185 -33t192 68v-117q-106 -68 -207 -67q-64 0 -170 34t-172 33q-95 1 -201 -69v116q99 68 183 68zM322 834q82 0 188 -33t185 -33t192 68v-117q-106 -68 -188 -68q-83 0 -189 32t-190 32t-183 -66v117q103 68 185 68z" />
    </font>
</defs>
</svg>
