<?xml version="1.0" encoding="utf-8"?>
<!-- Generator: Adobe Illustrator 19.1.0, SVG Export Plug-In . SVG Version: 6.00 Build 0)  -->
<svg version="1.1" id="Layer_1" xmlns="http://www.w3.org/2000/svg" xmlns:xlink="http://www.w3.org/1999/xlink" x="0px" y="0px"
	 viewBox="0 0 214.4 40" style="enable-background:new 0 0 214.4 40;" xml:space="preserve">
<style type="text/css">
	.st0{fill:#FFFFFF;}
</style>
<g>
	<g>
		<path class="st0" d="M48.1,0H2.2C1,0,0,1.1,0,2.4v29.3c0,1.3,1,2.3,2.2,2.3h18.5v-2.6H2.6V2.6h45.2v10.4h2.6V2.4
			C50.3,1.1,49.3,0,48.1,0z"/>
		<path class="st0" d="M34,30.5h-4c-0.9,0-1.3-0.4-1.3-1.1c0-0.4,0.2-0.8,0.5-1.1c0.8,0.3,1.6,0.4,2.5,0.4c3.2,0,5.6-2,5.6-5v-0.4
			c0-0.9-0.3-1.8-0.7-2.5c0.7-0.3,1.6-0.4,2.2-0.4v-2.8c-1.2,0-2.6,0.8-3.3,1.9c-1-0.8-2.3-1.2-3.7-1.2c-3.2,0-5.6,2-5.6,5v0.4
			c0,1.7,0.7,3,1.8,3.8c-1.2,0.7-2,1.5-2,2.8c0,1.1,0.6,2.1,1.7,2.5c-1.6,0.4-2.6,1.5-2.6,3c0,2.7,2.8,4,6.5,4
			c3.9,0,7.2-1.6,7.2-5.2C38.9,32,37.2,30.5,34,30.5z M29.3,23.4c0-1.6,0.7-2.8,2.3-2.8c1.6,0,2.3,1.2,2.3,2.8v0.3
			c0,1.6-0.7,2.8-2.3,2.8c-1.6,0-2.3-1.2-2.3-2.8V23.4z M31.6,37.6c-2.3,0-3.6-0.8-3.6-2.2c0-1.2,0.8-2,2.5-2h3
			c1.4,0,2.3,0.5,2.3,1.8C35.8,36.8,34.1,37.6,31.6,37.6z"/>
		<path class="st0" d="M44.9,21.1v-2.4h-3.2v15.2h3.2v-8.5c0-2.7,1.2-4,3.2-4c0.6,0,1.1,0.1,1.7,0.2l0.1-3c-0.3-0.1-0.9-0.2-1.4-0.2
			C46.8,18.4,45.4,19.3,44.9,21.1z"/>
		<path class="st0" d="M63.3,30.6v-6.9c0-3.2-1.6-5.3-5.4-5.3c-3.6,0-5.5,2.1-5.5,5.2v0.4h2.9v-0.3c0-1.6,0.8-2.6,2.4-2.6
			c1.7,0,2.2,1.1,2.2,2.7V24l-4.2,1.8c-2,0.8-3.8,1.8-3.8,4.5c0,2.3,1.5,3.9,4,3.9c2,0,3.5-1.1,4.1-2.4c0.3,1.6,1.4,2.3,2.8,2.3
			c0.8,0,1.4-0.2,2-0.6v-2.1c-0.3,0.1-0.5,0.1-0.8,0.1C63.5,31.5,63.3,31.2,63.3,30.6z M59.8,27.8c0,2.3-1.2,3.8-3,3.8
			c-1.1,0-1.8-0.6-1.8-1.7c0-1.2,0.7-1.8,1.9-2.3l2.9-1.3V27.8z"/>
		<polygon class="st0" points="72.8,29.3 72.6,29.3 69.1,18.7 65.8,18.7 71,33.9 74.2,33.9 79.2,18.7 76,18.7 		"/>
		<rect x="82.2" y="12.9" class="st0" width="3.5" height="3.5"/>
		<rect x="82.2" y="18.7" class="st0" width="3.2" height="15.2"/>
		<path class="st0" d="M93.8,29.6V21h3.2v-2.3h-3.2v-4.3h-2.1l-0.4,2.1c-0.3,1.4-0.7,2.2-2.1,2.5l-0.6,0.1V21h1.7v9.1
			C90.3,33,92,34,94,34c1.3,0,2.3-0.3,3.5-1v-2.5c-0.9,0.5-1.5,0.8-2.3,0.8C94.2,31.3,93.8,30.7,93.8,29.6z"/>
		<path class="st0" d="M111.3,30.6v-6.9c0-3.2-1.6-5.3-5.4-5.3c-3.6,0-5.5,2.1-5.5,5.2v0.4h2.9v-0.3c0-1.6,0.8-2.6,2.4-2.6
			c1.7,0,2.2,1.1,2.2,2.7V24l-4.2,1.8c-2,0.8-3.8,1.8-3.8,4.5c0,2.3,1.5,3.9,4,3.9c2,0,3.5-1.1,4.1-2.4c0.3,1.6,1.4,2.3,2.8,2.3
			c0.8,0,1.4-0.2,2-0.6v-2.1c-0.3,0.1-0.5,0.1-0.8,0.1C111.5,31.5,111.3,31.2,111.3,30.6z M107.8,27.8c0,2.3-1.2,3.8-3,3.8
			c-1.1,0-1.8-0.6-1.8-1.7c0-1.2,0.7-1.8,1.9-2.3l2.9-1.3V27.8z"/>
		<path class="st0" d="M122.1,25.2l-2-0.6c-1.2-0.4-1.9-0.8-1.9-2c0-1.2,0.8-1.9,2.1-1.9c1.8,0,2.7,1.2,2.7,2.9h2.9
			c0-2.9-1.8-5.3-5.6-5.3c-3.1,0-5.1,1.9-5.1,4.6c0,2.6,1.4,3.8,3.8,4.5l2.1,0.6c1.4,0.4,2,0.8,2,1.9c0,1.2-0.9,1.8-2.3,1.8
			c-1.7,0-2.9-0.9-3-2.9h-2.9c0.1,3.5,2.5,5.3,5.9,5.3c3.3,0,5.4-1.7,5.4-4.5C126.1,27.1,124.7,26,122.1,25.2z"/>
		<path class="st0" d="M138.7,18.5c-3.3,0-5.6,2.6-5.6,7.4v0.8c0,4.8,2.2,7.4,5.5,7.4c3.5,0,5.1-2.5,5.2-5.7h-1.8
			c-0.1,2.9-1.2,4.1-3.5,4.1c-2.2,0-3.7-1.8-3.7-5.9h9.1v-0.8C144.1,21.1,142.2,18.5,138.7,18.5z M135,25.3c0.1-3.7,1.5-5.1,3.6-5.1
			c2.2,0,3.4,1.4,3.5,5.1H135z"/>
		<path class="st0" d="M154.6,18.5c-2,0-3.4,1.1-3.9,2.5v-2.3h-2v15.2h2v-9.6c0-2.7,1.4-4.2,3.4-4.2c2,0,3,1.2,3,3.6v10.3h2V23.3
			C159,20.4,157.5,18.5,154.6,18.5z"/>
		<path class="st0" d="M169.2,18.5c-3.3,0-5.6,2.6-5.6,7.4v0.8c0,4.8,2.2,7.4,5.6,7.4c3.5,0,5.1-2.5,5.2-5.7h-1.8
			c-0.1,2.9-1.2,4.1-3.5,4.1c-2.2,0-3.7-1.8-3.7-5.9h9v-0.8C174.6,21.1,172.6,18.5,169.2,18.5z M165.6,25.3c0.1-3.7,1.5-5.1,3.6-5.1
			c2.2,0,3.4,1.4,3.5,5.1H165.6z"/>
		<path class="st0" d="M181.2,21.3v-2.6h-2v15.2h2v-9.2c0-3,1.2-4.4,3.3-4.4c0.6,0,1,0.1,1.3,0.2l0.1-1.7c-0.3-0.1-0.8-0.2-1.2-0.2
			C182.9,18.6,181.8,19.6,181.2,21.3z"/>
		<path class="st0" d="M197.2,19.9c-0.9-0.8-2-1.3-3.4-1.3c-2.9,0-4.9,2.1-4.9,5v0.4c0,1.6,0.6,3,1.7,3.9c-1.1,0.6-1.8,1.4-1.8,2.5
			c0,0.9,0.4,1.8,1.6,2.1c-1.7,0.5-2.7,1.7-2.7,3.3c0,2.7,2.5,4.3,6,4.3c3.4,0,6.5-1.5,6.5-5c0-2.6-1.8-4-4.8-4h-3.7
			c-1,0-1.4-0.5-1.4-1.2c0-0.7,0.4-1.1,0.9-1.5c0.7,0.4,1.5,0.6,2.4,0.6c2.9,0,4.9-2.1,4.9-5v-0.4c0-1.1-0.3-2.1-0.8-2.9
			c0.6-0.4,1.7-0.7,2.6-0.7V18C199,18,197.9,18.7,197.2,19.9z M193.1,32.8h2.3c1.9,0,3.1,0.7,3.1,2.4c0,2.3-2.2,3.3-4.8,3.3
			c-2.6,0-4.2-1.1-4.2-3C189.6,33.8,190.8,32.8,193.1,32.8z M196.7,23.8c0,2-1,3.6-3,3.6s-3-1.6-3-3.6v-0.2c0-2,1-3.6,3-3.6
			s3,1.6,3,3.6V23.8z"/>
		<polygon class="st0" points="212.6,18.7 208.8,31.1 208.7,31.1 204.4,18.7 202.5,18.7 207.8,33.7 205.9,39.7 207.6,39.7 
			214.4,18.7 		"/>
	</g>
</g>
</svg>
